<svg width="18" height="32" viewBox="0 0 18 32" fill="none" xmlns="http://www.w3.org/2000/svg">
<g clip-path="url(#clip0_13_1376)">
<path fill-rule="evenodd" clip-rule="evenodd" d="M0 12.1056V17.8425L5.34405 17.8507L5.35269 31.7114C5.65943 31.8975 8.0852 32.0038 8.60146 31.9998C9.34021 31.9936 11.3189 31.9445 11.9064 31.7359C12.0036 30.6581 11.9237 29.3737 11.9215 28.2733V17.865L16.8098 17.8487L17.7473 12.1158L11.9107 12.1076C11.9107 11.0625 11.9107 10.0215 11.9107 8.98045C11.9107 7.86988 11.9388 7.20109 12.5155 6.39526C13.5913 4.89404 15.8529 5.39513 18 5.26219V0.38222C17.6328 0.234961 15.0493 0.0508889 14.4877 0.0243006C12.684 -0.0636452 11.0121 0.0549794 9.4007 0.727867C8.9298 0.924211 8.54746 1.17169 8.18673 1.42734C7.50198 1.91207 6.80643 2.70358 6.3809 3.41737C5.00924 5.71214 5.38942 8.88228 5.35701 11.6331C5.35053 12.216 5.6119 12.0872 3.9076 12.0913C3.05004 12.0913 0.669627 12.0565 0 12.1036L0 12.1056Z" fill="#F7A400"/>
</g>
<defs>
<clipPath id="clip0_13_1376">
<rect width="18" height="32" fill="white"/>
</clipPath>
</defs>
</svg>
