<svg width="29" height="32" viewBox="0 0 29 32" fill="none" xmlns="http://www.w3.org/2000/svg">
<g clip-path="url(#clip0_13_1374)">
<path fill-rule="evenodd" clip-rule="evenodd" d="M15.673 0.598635L15.658 21.0955C15.6559 24.1972 13.2907 27.5673 9.74081 26.5829C8.21607 26.1598 7.05915 25.4334 6.28288 24.1168C4.88859 21.7579 6.03268 18.7057 8.31016 17.4922C9.40293 16.9103 10.2369 16.8009 11.627 16.9825L11.6676 11.9264C10.0295 11.914 8.38501 12.1431 6.9287 12.5764C5.93644 12.8716 4.97626 13.307 4.1337 13.825C3.99042 13.9137 3.88991 13.9942 3.75305 14.0912C1.5718 15.6411 -0.00426829 17.9277 8.68368e-06 21.6857C0.00214717 24.5605 1.20398 27.1153 3.04949 29.049L4.09093 29.9488C8.53256 33.2281 14.7427 32.3634 18.1579 28.8571C18.6583 28.3453 18.9384 28.0461 19.3576 27.4311C20.5829 25.6357 21.1518 23.5967 21.1411 21.3225C21.1368 20.2184 21.0021 11.8335 21.1967 10.391C21.4041 10.4426 22.3921 11.2144 22.7407 11.4517C24.182 12.4361 25.8821 12.9892 27.6891 13.0428C27.9094 13.049 28.1275 13.049 28.3478 13.0428L28.814 13.014C28.9444 12.9789 28.8717 13.0222 28.9423 12.9479C29.0235 12.8097 28.9915 8.22201 28.9936 7.63178C28.6023 7.49764 27.7469 7.47081 27.2657 7.40477C26.7054 7.32635 26.1708 7.20872 25.6682 7.04156C23.7393 6.39974 22.4691 4.99848 21.7505 3.20511C21.5581 2.72839 21.4105 2.26199 21.3015 1.73574C21.2181 1.33125 21.1047 0.421155 20.955 0.126043L15.6708 0.00634766V0.604826L15.673 0.598635Z" fill="#F7A400"/>
</g>
<defs>
<clipPath id="clip0_13_1374">
<rect width="29" height="32" fill="white"/>
</clipPath>
</defs>
</svg>
