<svg width="32" height="32" viewBox="0 0 32 32" fill="none" xmlns="http://www.w3.org/2000/svg">
<g clip-path="url(#clip0_13_1368)">
<path d="M24.4509 5.69971C23.3975 5.69971 22.5402 6.55663 22.5402 7.61043C22.5402 8.66423 23.3971 9.52115 24.4509 9.52115C25.5047 9.52115 26.3616 8.66382 26.3616 7.61043C26.3616 6.55703 25.5047 5.69971 24.4509 5.69971Z" fill="#F7A400"/>
<path d="M16.131 8.40808C11.9446 8.40808 8.53882 11.8138 8.53882 16.0002C8.53882 20.1866 11.9446 23.5924 16.131 23.5924C20.3173 23.5924 23.7227 20.1866 23.7227 16.0002C23.7227 11.8138 20.3169 8.40808 16.131 8.40808ZM16.131 20.7354C13.5196 20.7354 11.3954 18.6112 11.3954 15.9998C11.3954 13.3885 13.5196 11.2642 16.131 11.2642C18.7423 11.2642 20.8662 13.3885 20.8662 15.9998C20.8662 18.6112 18.7419 20.7354 16.131 20.7354Z" fill="#F7A400"/>
<path d="M24.5991 0H7.40013C3.31971 0 0 3.31971 0 7.40013V24.5995C0 28.6799 3.31971 31.9996 7.40013 31.9996H24.5995C28.6799 31.9996 31.9996 28.6799 31.9996 24.5995V7.40095C32 3.32012 28.6799 0 24.5991 0ZM7.40013 28.9186C5.01894 28.9186 3.08143 26.9811 3.08143 24.5999V7.40013C3.08143 5.01894 5.01853 3.08143 7.40013 3.08143H24.5991C26.9807 3.08143 28.9182 5.01894 28.9182 7.40054V24.5995C28.9182 26.9807 26.9807 28.9182 24.5995 28.9182H7.40013V28.9186Z" fill="#F7A400"/>
</g>
<defs>
<clipPath id="clip0_13_1368">
<rect width="32" height="32" fill="white"/>
</clipPath>
</defs>
</svg>
