<svg width="32" height="32" viewBox="0 0 32 32" fill="none" xmlns="http://www.w3.org/2000/svg">
<g clip-path="url(#clip0_13_1378)">
<path fill-rule="evenodd" clip-rule="evenodd" d="M17.8318 12.043C17.749 11.8156 17.7766 10.9996 17.7957 10.6999H11.5383V31.9639C12.0647 31.9575 12.5911 31.9554 13.1175 31.949C13.455 31.9447 14.4208 31.8959 14.684 31.9532C14.943 32.0042 17.3521 31.9639 17.8191 31.9617C17.8488 31.2094 17.783 30.3254 17.7766 29.5561C17.7575 27.0931 17.8127 24.6194 17.8169 22.1522C17.8233 19.3683 17.9655 16.1721 21.6079 16.0361C22.3805 16.0064 23.1043 16.1424 23.6753 16.4548C24.1422 16.7119 24.6007 17.2177 24.8554 17.7532C25.4412 18.9964 25.4455 20.6179 25.4476 22.1161C25.4519 24.5833 25.5092 27.0548 25.4901 29.52C25.4837 30.285 25.4094 31.2243 25.4476 31.9596L31.9682 31.9851C32.0191 31.524 31.9809 22.828 31.9809 22.1161V18.4481C31.9809 18.0337 32.0191 17.5959 31.9979 17.19C31.9172 15.5686 30.9706 13.1311 29.7586 12.0175C29.3553 11.6477 28.814 11.2461 28.3152 10.9805C27.186 10.379 25.8424 10.005 24.3375 10.005C22.5482 10.005 20.5444 10.7084 19.3367 11.8092C18.7572 12.3363 18.4686 12.6423 18.0016 13.2692L17.8339 13.4392V12.043H17.8318ZM0.638904 32H7.21041C7.15098 31.0734 7.20829 29.945 7.21041 28.9972C7.21253 27.9963 7.21465 26.9953 7.21678 25.9944C7.21678 25.2995 7.16583 20.1758 7.25286 19.9867C7.19131 19.6807 7.24013 15.9851 7.24013 15.3412C7.24013 14.5719 7.24013 13.8047 7.24225 13.0354C7.24225 12.3087 7.29107 11.4119 7.238 10.7042L0.643149 10.6829L0.636782 31.9979L0.638904 32ZM3.48741 0.0361053C2.31786 0.201864 1.42214 0.743769 0.902104 1.38768C0.350234 2.07197 -0.120979 3.1919 0.0276016 4.38409C0.278066 6.3817 2.05042 8.1328 4.36828 7.85016C6.33803 7.61002 8.07854 5.7888 7.78775 3.48942C7.54153 1.54706 5.7522 -0.282662 3.48741 0.0361053Z" fill="#F7A400"/>
</g>
<defs>
<clipPath id="clip0_13_1378">
<rect width="32" height="32" fill="white"/>
</clipPath>
</defs>
</svg>
