<svg width="247" height="85" viewBox="0 0 247 85" fill="none" xmlns="http://www.w3.org/2000/svg">
<g clip-path="url(#clip0_2_6)">
<path d="M13.581 14.3717H16.1655C18.0174 14.3717 19.5237 12.7342 19.5237 10.7144V5.752C19.5237 2.70976 21.3838 0.681595 24.635 0.681595C27.8862 0.681595 29.7464 2.70976 29.7464 5.752V32.1181C29.7464 33.7307 29.2278 35.0523 28.2484 35.95C27.2442 36.8727 26.0672 37.014 24.6268 37.1885C23.1288 37.3714 21.0875 37.6291 19.0051 36.482C18.4701 36.1828 16.2807 34.9858 15.7704 32.567C15.6716 32.1098 15.3506 30.5804 16.3218 29.1174C17.3836 27.5132 19.178 27.214 19.4743 27.1641C19.4331 26.8399 19.2685 25.884 18.5277 25.0777C17.5812 24.047 16.4042 24.0055 16.1572 24.0055H13.5727C13.3094 24.0055 12.1323 24.0637 11.2022 25.0777C10.5438 25.7926 10.3462 26.6155 10.2804 26.9646C10.6755 27.0643 12.1076 27.4966 13.0871 28.893C13.1859 29.0343 14.2724 30.6469 13.795 32.6501C13.3011 34.7281 11.4821 35.7422 10.5602 36.2576C8.32145 37.5044 6.12381 37.3049 5.10318 37.1885C3.8027 37.0472 2.54338 36.9226 1.4816 35.95C0.510357 35.0606 -0.0164185 33.7307 -0.0164185 32.1181V5.752C4.32711e-05 2.70976 1.86022 0.681595 5.11141 0.681595C8.3626 0.681595 10.2228 2.70976 10.2228 5.752V10.7144C10.2228 12.7342 11.729 14.3717 13.581 14.3717Z" fill="#6B4796"/>
<path d="M43.7388 31.9436C42.6277 34.9858 40.8498 37.014 38.397 37.014C35.508 37.014 33.5079 34.7281 33.5079 31.9436C33.5079 30.4225 34.619 27.3802 34.619 27.3802L41.7387 6.08449C43.0721 2.27753 45.0722 0 49.5251 0C53.978 0 56.0193 2.28584 57.3115 6.08449L64.4312 27.3802C64.4312 27.3802 65.5424 30.4225 65.5424 31.9436C65.5424 34.7281 63.5423 37.014 60.6533 37.014C58.2087 37.014 56.4308 34.9858 55.3114 31.9436L54.2003 28.9013H44.8582L43.7471 31.9436H43.7388ZM52.1919 19.7746L49.7474 12.169H49.3029L46.8583 19.7746H52.2002H52.1919Z" fill="#6B4796"/>
<path d="M79.4114 23.5816V31.6942C79.4114 34.7365 77.8393 36.7646 75.0737 36.7646C72.3081 36.7646 70.736 34.7365 70.736 31.6942V5.83513C70.736 2.79288 72.3081 0.764717 75.0737 0.764717H83.3457C91.6177 0.764717 95.1652 5.32808 95.1652 12.1773C95.1652 18.5195 90.8276 20.5476 90.8276 20.5476V21.0547L94.7701 27.1392C94.7701 27.1392 96.3422 29.6744 96.3422 31.7025C96.3422 34.7448 94.7701 36.7729 91.6177 36.7729C89.6505 36.7729 88.0702 34.2377 88.0702 34.2377L81.7654 23.5899H79.4031L79.4114 23.5816ZM83.3539 14.9619C85.1236 14.9619 86.1113 13.6984 86.1113 12.1773C86.1113 10.6562 85.1236 9.38441 83.3539 9.38441H79.4114V14.9619H83.3539Z" fill="#6B4796"/>
<path d="M118.442 28.3943L115.026 18.7605H114.574L112.524 31.9436C112.071 34.9858 110.244 37.014 107.281 37.014C104.318 37.014 102.491 34.9858 102.491 31.9436C102.491 29.9154 102.943 27.3802 102.943 27.3802L106.137 6.08449C106.68 2.5352 108.87 0 112.746 0C116.162 0 118.22 2.28584 119.586 6.08449L123.693 17.9542H124.146L128.245 6.08449C129.57 2.28584 131.661 0 135.085 0C138.962 0 141.192 2.5352 141.694 6.08449L144.888 27.3802C144.888 27.3802 145.341 29.9154 145.341 31.9436C145.341 34.9858 143.513 37.014 140.55 37.014C137.587 37.014 135.76 34.9858 135.307 31.9436L133.258 18.7605H132.805L129.389 28.3943C128.253 31.6942 126.657 33.4647 123.916 33.4647C121.175 33.4647 119.537 31.6859 118.442 28.3943Z" fill="#6B4796"/>
<path d="M181.647 22.3098C181.647 30.9295 175.778 37.521 166.535 37.521C157.292 37.521 151.423 30.9295 151.423 22.3098V15.2112C151.415 6.59153 157.284 0 166.527 0C175.77 0 181.639 6.59153 181.639 15.2112V22.3098H181.647ZM171.498 15.2112C171.498 11.1549 169.243 8.61969 166.535 8.61969C163.827 8.61969 161.572 11.1549 161.572 15.2112V22.3098C161.572 26.3661 163.827 28.9013 166.535 28.9013C169.243 28.9013 171.498 26.3661 171.498 22.3098V15.2112Z" fill="#6B4796"/>
<path d="M196.273 20.2816V31.9436C196.273 34.9858 194.495 37.014 191.384 37.014C188.273 37.014 186.495 34.9858 186.495 31.9436V5.57745C186.495 2.58508 188.273 0.507042 191.384 0.507042C194.051 0.507042 195.606 2.28584 197.607 5.57745L205.162 17.2394H205.607V5.57745C205.607 2.53521 207.385 0.507042 210.496 0.507042C213.607 0.507042 215.385 2.53521 215.385 5.57745V31.9436C215.385 34.9359 213.607 37.014 210.496 37.014C207.829 37.014 206.274 35.2435 204.274 31.9436L196.718 20.2816H196.273Z" fill="#6B4796"/>
<path d="M233.197 12.676L238.555 3.04225C238.555 3.04225 239.996 0.507042 242.259 0.507042C245.346 0.507042 247 2.53521 247 5.57745C247 7.60561 245.354 10.1408 245.354 10.1408L237.526 23.8309V31.9436C237.526 34.9858 235.88 37.014 232.991 37.014C230.102 37.014 228.456 34.9858 228.456 31.9436V23.8309L220.628 10.1408C220.628 10.1408 218.982 7.60561 218.982 5.57745C218.982 2.53521 220.628 0.507042 223.723 0.507042C225.987 0.507042 227.427 3.04225 227.427 3.04225L232.785 12.676H233.197Z" fill="#6B4796"/>
<path d="M56.258 72.0663V78.1508C56.258 81.193 54.5459 83.2212 51.5499 83.2212C48.5539 83.2212 46.8419 81.193 46.8419 78.1508V52.2917C46.8419 49.2495 48.5539 47.2213 51.5499 47.2213H60.1018C68.6536 47.2213 73.3617 52.7987 73.3617 59.648C73.3617 66.4972 68.6536 72.0746 60.1018 72.0746H56.2497L56.258 72.0663ZM60.11 62.9396C62.25 62.9396 63.5341 61.4184 63.5341 59.6396C63.5341 57.8608 62.25 56.348 60.11 56.348H56.258V62.9396H60.11Z" fill="#6B4796"/>
<path d="M141.999 65.4748L139.678 78.6578C138.871 82.2071 136.723 84.7423 132.492 84.7423C128.262 84.7423 126.105 82.2071 125.307 78.6578L120.442 57.3621C120.442 57.3621 119.594 54.3199 119.594 52.7987C119.594 50.0142 121.496 47.7283 124.245 47.7283C127.208 47.7283 128.895 49.7565 129.529 52.7987L132.912 69.5311H133.332L136.081 53.8128C136.756 50.0059 138.616 47.7283 142.213 47.7283C145.81 47.7283 147.67 50.0142 148.345 53.8128L151.094 69.5311H151.514L154.897 52.7987C155.53 49.7565 157.218 47.7283 160.181 47.7283C162.93 47.7283 164.831 50.0142 164.831 52.7987C164.831 54.3199 163.984 57.3621 163.984 57.3621L159.119 78.6578C158.312 82.2071 156.156 84.7423 151.934 84.7423C147.711 84.7423 145.546 82.2071 144.748 78.6578L142.427 65.4748H142.007H141.999Z" fill="#6B4796"/>
<path d="M172.379 59.1326C172.379 52.5411 176.626 47.4707 185.12 47.4707C192.553 47.4707 196.8 52.5411 196.8 56.0904C196.8 58.8832 195.31 60.6537 192.125 60.6537C188.725 60.6537 188.306 57.1044 185.112 57.1044C182.989 57.1044 182.141 58.1185 182.141 59.1326C182.141 62.6819 197.862 61.1608 197.862 72.8227C197.862 79.4142 193.187 84.9917 183.845 84.9917C175.984 84.9917 171.737 79.9213 171.737 76.372C171.737 73.5874 173.227 71.8086 176.412 71.8086C179.811 71.8086 180.231 75.3579 183.845 75.3579C187.03 75.3579 188.092 74.0861 188.092 72.8227C188.092 69.7805 172.371 71.3016 172.371 59.1326H172.379Z" fill="#6B4796"/>
<path d="M83.7326 59.1409C81.5597 55.9241 81.4527 52.1753 83.5021 50.7623C85.5516 49.3492 88.9674 50.8121 91.1486 54.0289C93.3216 57.2457 93.4286 60.9945 91.3791 62.4076C89.3296 63.8207 85.9138 62.3577 83.7326 59.1409ZM86.8192 71.7588C88.4324 70.0298 87.5847 66.5637 84.9096 64.0201C82.2428 61.4766 78.7694 60.82 77.1479 62.5572C75.5347 64.2861 76.3907 67.7523 79.0575 70.2958C81.7243 72.831 85.1977 73.4877 86.8192 71.7588ZM95.8731 61.6927C87.9303 64.336 84.6792 84.2768 92.0375 84.4514C98.0296 84.5927 96.7374 80.3951 101.24 79.1233C101.338 79.0984 101.437 79.0734 101.528 79.0485C101.618 79.0069 101.709 78.9654 101.808 78.9321C106.178 77.2531 107.61 81.4008 112.351 77.6936C118.162 73.1386 103.816 59.0495 95.8731 61.6927ZM99.9062 59.5648C102.384 59.4734 104.269 56.24 104.129 52.3499C103.981 48.4598 101.857 45.376 99.3877 45.4674C96.9102 45.5589 95.0254 48.7923 95.1653 52.6824C95.3052 56.5725 97.437 59.6563 99.9062 59.5648ZM111.429 51.1446C109.108 50.7207 106.705 53.339 106.055 56.9798C105.404 60.6288 106.754 63.9204 109.075 64.3443C111.397 64.7682 113.8 62.1499 114.45 58.5092C115.1 54.8602 113.751 51.5602 111.429 51.1446Z" fill="#6B4796"/>
</g>
<defs>
<clipPath id="clip0_2_6">
<rect width="247" height="85" fill="white"/>
</clipPath>
</defs>
</svg>
