<?xml version="1.0" standalone="no"?>
<!DOCTYPE svg PUBLIC "-//W3C//DTD SVG 20010904//EN"
 "http://www.w3.org/TR/2001/REC-SVG-20010904/DTD/svg10.dtd">
<svg version="1.0" xmlns="http://www.w3.org/2000/svg"
 width="1148.000000pt" height="372.000000pt" viewBox="0 0 1148.000000 372.000000"
 preserveAspectRatio="xMidYMid meet">

<g transform="translate(0.000000,372.000000) scale(0.100000,-0.100000)"
fill="#000000" stroke="none">
<path d="M2191 3704 c-99 -26 -158 -78 -210 -182 -15 -31 -115 -316 -221 -632
-172 -510 -194 -582 -194 -640 -1 -132 93 -230 219 -230 121 0 188 68 265 268
l38 97 218 3 219 2 34 -95 c64 -183 140 -265 252 -273 104 -8 189 49 225 150
18 52 18 89 -1 163 -25 94 -384 1154 -407 1198 -26 53 -94 125 -138 147 -79
40 -203 50 -299 24z m182 -716 c31 -95 55 -174 53 -175 -2 -2 -57 -2 -123 -1
l-119 3 54 173 c31 94 61 172 67 172 6 0 37 -77 68 -172z"/>
<path d="M5134 3702 c-87 -31 -147 -93 -178 -185 -9 -26 -54 -300 -101 -610
-70 -457 -86 -579 -83 -652 4 -108 24 -156 87 -200 39 -27 50 -30 125 -30 74
0 87 3 132 30 85 53 98 89 158 471 32 203 57 329 64 332 7 2 12 2 12 -1 0 -22
195 -538 214 -567 76 -115 233 -143 336 -61 56 45 90 113 184 380 50 138 95
250 100 248 6 -2 34 -149 63 -326 28 -178 58 -342 67 -365 34 -90 119 -146
221 -146 146 0 219 85 217 250 -1 113 -165 1192 -192 1262 -27 73 -70 122
-138 155 -48 24 -69 28 -137 28 -96 0 -154 -23 -212 -83 -60 -62 -83 -114
-194 -432 -56 -162 -106 -299 -110 -304 -5 -5 -11 -7 -15 -4 -3 4 -52 140
-109 302 -134 382 -162 434 -266 490 -69 38 -169 45 -245 18z"/>
<path d="M7601 3709 c-285 -51 -487 -246 -546 -530 -22 -102 -21 -541 1 -647
68 -330 329 -534 684 -534 196 0 358 57 482 172 83 75 139 164 181 283 l32 92
0 305 c0 339 -4 368 -70 505 -80 165 -233 289 -420 340 -73 19 -270 28 -344
14z m228 -409 c46 -23 87 -69 115 -130 19 -41 21 -66 24 -287 3 -203 1 -252
-13 -300 -32 -109 -98 -177 -186 -189 -96 -13 -178 37 -229 141 -25 49 -25 53
-25 320 0 253 1 273 21 315 28 60 68 106 113 130 48 26 130 26 180 0z"/>
<path d="M8837 3689 c-81 -19 -131 -64 -156 -138 -8 -24 -11 -228 -11 -700 l0
-666 24 -51 c36 -78 101 -114 206 -114 101 0 184 59 210 151 6 19 10 166 10
327 0 228 3 293 12 290 7 -3 102 -141 210 -309 109 -167 221 -330 250 -363 62
-70 112 -95 191 -96 95 0 158 36 200 115 22 40 22 46 25 695 3 691 2 713 -43
781 -67 103 -263 113 -352 17 -53 -57 -57 -81 -61 -400 -2 -164 -7 -298 -12
-298 -4 0 -101 143 -215 318 -210 322 -262 389 -325 422 -45 23 -114 31 -163
19z"/>
<path d="M10336 3689 c-64 -15 -102 -46 -130 -101 -35 -69 -35 -160 -2 -238
12 -30 111 -208 219 -394 l197 -339 0 -221 c0 -240 7 -273 61 -323 79 -72 226
-71 295 4 53 57 57 81 62 327 l4 229 186 321 c233 404 246 431 246 517 0 79
-32 152 -82 186 -47 31 -125 46 -174 33 -72 -20 -109 -66 -249 -316 -72 -129
-136 -234 -143 -234 -6 0 -67 100 -136 223 -124 221 -170 286 -220 312 -38 19
-89 25 -134 14z"/>
<path d="M145 3668 c-50 -17 -96 -58 -116 -102 -18 -39 -19 -78 -19 -692 l0
-650 25 -50 c31 -61 72 -89 153 -105 223 -43 442 77 442 241 0 77 -60 168
-126 192 -19 6 -34 18 -34 26 0 31 43 81 86 102 61 30 207 26 250 -6 37 -27
63 -64 66 -93 3 -19 -4 -26 -37 -37 -143 -51 -169 -231 -51 -345 79 -77 172
-102 317 -87 138 15 202 58 228 153 14 52 15 1265 1 1314 -27 95 -108 151
-219 151 -102 -1 -180 -47 -212 -125 -7 -18 -15 -102 -18 -205 -6 -162 -8
-177 -29 -208 -33 -45 -76 -65 -157 -70 -92 -6 -146 10 -184 53 -42 49 -51 90
-51 255 0 120 -4 152 -19 186 -21 45 -67 85 -120 103 -42 14 -135 13 -176 -1z"/>
<path d="M3405 3666 c-44 -19 -82 -68 -100 -128 -13 -44 -15 -146 -15 -683 0
-676 1 -686 50 -755 58 -82 208 -94 283 -23 59 57 62 67 67 323 l5 235 54 0
55 0 152 -254 c84 -139 169 -271 190 -292 45 -46 91 -63 150 -56 123 13 194
111 181 249 -7 77 -43 151 -161 330 l-96 148 74 72 c57 57 78 86 95 131 33 89
43 185 31 284 -29 231 -147 367 -362 418 -86 20 -607 21 -653 1z m530 -390
c89 -38 89 -194 0 -232 -22 -9 -71 -14 -140 -14 l-105 0 0 130 0 130 105 0
c69 0 118 -5 140 -14z"/>
<path d="M2445 1727 c-57 -23 -74 -37 -102 -85 l-28 -47 -3 -660 c-2 -476 0
-671 8 -700 28 -95 99 -144 208 -145 72 0 116 16 154 56 51 55 60 95 66 280
l5 172 161 4 c139 4 172 9 243 32 279 91 431 364 368 661 -45 212 -185 359
-400 421 -49 14 -112 18 -355 20 -214 2 -303 0 -325 -9z m555 -425 c103 -51
108 -201 8 -262 -28 -17 -51 -20 -145 -20 l-113 0 0 150 0 150 108 0 c82 0
115 -4 142 -18z"/>
<path d="M8122 1720 c-234 -43 -383 -171 -437 -376 -8 -32 -15 -100 -15 -150
0 -196 75 -324 245 -419 69 -39 118 -57 304 -115 157 -49 186 -69 171 -122
-17 -59 -77 -88 -180 -88 -83 0 -108 11 -200 87 -86 71 -144 87 -235 62 -95
-26 -141 -98 -133 -211 5 -82 37 -147 107 -217 67 -67 148 -112 256 -142 108
-30 293 -30 408 0 233 61 377 203 422 417 19 89 19 155 0 229 -24 91 -54 142
-120 203 -80 75 -148 110 -341 175 -178 61 -238 88 -248 112 -29 77 71 143
174 115 24 -6 70 -36 114 -74 91 -77 139 -94 224 -77 91 18 145 72 158 158 24
160 -119 338 -327 407 -93 31 -252 43 -347 26z"/>
<path d="M4320 1706 c-111 -25 -185 -85 -234 -191 -27 -57 -380 -1099 -403
-1189 -28 -109 5 -214 85 -271 58 -40 158 -48 219 -17 74 38 113 94 173 252
l36 95 218 0 219 0 32 -85 c44 -120 62 -154 106 -203 49 -57 93 -77 163 -77
71 0 113 17 160 66 52 53 72 128 58 209 -14 75 -382 1166 -417 1234 -51 102
-128 160 -239 180 -73 13 -105 13 -176 -3z m161 -721 l56 -175 -124 0 c-96 0
-124 3 -120 13 2 6 28 85 58 175 29 89 58 162 64 162 6 0 36 -79 66 -175z"/>
<path d="M5479 1706 c-93 -33 -149 -115 -149 -218 0 -76 261 -1209 297 -1291
33 -74 106 -141 176 -162 66 -20 191 -19 250 1 26 9 69 35 95 59 79 72 97 123
160 479 50 282 63 339 76 325 2 -2 29 -144 60 -315 30 -172 65 -336 76 -366
26 -71 80 -132 144 -165 73 -38 215 -44 298 -14 70 27 132 86 164 156 22 48
254 1017 291 1215 15 79 15 89 -2 145 -40 139 -185 201 -315 135 -95 -48 -109
-88 -207 -564 -46 -226 -86 -412 -88 -415 -3 -2 -8 -2 -11 1 -3 4 -36 179 -74
390 -37 210 -77 408 -89 438 -44 117 -123 173 -246 174 -129 2 -219 -59 -263
-177 -12 -31 -51 -224 -87 -429 -36 -205 -68 -379 -71 -387 -3 -9 -8 -11 -13
-5 -5 5 -46 189 -91 409 -45 220 -90 420 -101 445 -51 116 -172 175 -280 136z"/>
</g>
</svg>
