<svg width="429" height="561" viewBox="0 0 429 561" fill="none" xmlns="http://www.w3.org/2000/svg">
<g clip-path="url(#clip0_9_983)">
<path d="M297.456 564.404C300.063 564.793 301.683 568.18 300.353 570.456C300.058 570.964 299.652 571.401 299.253 571.833C297.789 573.414 296.326 574.994 294.862 576.575C293.66 577.873 292.446 579.182 291.014 580.22C289.73 581.151 288.13 581.873 286.584 581.513C284.543 581.038 283.388 578.931 282.49 577.037C281.621 575.211 280.751 573.382 279.883 571.555C279.101 569.91 278.301 568.17 278.439 566.356C278.576 564.539 280.032 562.687 281.848 562.805C283.533 562.91 284.658 564.515 286.054 565.466C290.24 568.316 293.371 563.797 297.459 564.409L297.456 564.404Z" fill="#F49819"/>
<path d="M280.553 516.81C279.644 518.255 278.219 519.287 277.049 520.53C275.584 522.087 274.492 523.998 272.837 525.356C271.184 526.711 268.625 527.359 266.947 526.035C266.371 525.58 265.967 524.949 265.575 524.331C264.126 522.045 262.676 519.757 261.227 517.47C259.658 514.994 258.834 511.577 261.818 509.703C264.037 508.309 266.903 509.98 268.806 511.159C270.013 511.908 271.566 512.503 272.813 511.823C273.277 511.568 273.639 511.163 274.058 510.836C277.838 507.899 283.117 512.724 280.55 516.812L280.553 516.81Z" fill="#F49819"/>
<path d="M281.758 524.041C281.106 523.139 280.093 522.297 278.997 522.501C278.348 522.621 277.823 523.091 277.393 523.592C275.199 526.153 273.844 533.124 279.052 533.044C283.292 532.977 283.627 526.623 281.758 524.041Z" fill="#F49819"/>
<path d="M274.129 535.385C273.932 533.777 272.786 532.227 271.199 531.902C270.909 531.844 270.608 531.825 270.321 531.904C269.879 532.026 269.533 532.367 269.234 532.716C268.088 534.064 267.355 535.76 267.155 537.519C267.033 538.597 267.122 539.741 267.675 540.673C268.228 541.606 269.329 542.266 270.397 542.068C273.307 541.522 274.445 537.982 274.127 535.383L274.129 535.385Z" fill="#F49819"/>
<path d="M265.464 535.952C266.173 534.687 266.634 533.207 266.342 531.785C266.049 530.363 264.835 529.074 263.383 529.051C262.124 529.03 261.04 529.902 260.15 530.797C259.009 531.946 257.946 533.292 257.684 534.89C257.421 536.487 258.218 538.355 259.773 538.81C262.565 539.632 264.136 538.319 265.464 535.952Z" fill="#F49819"/>
<path d="M260.764 523.443C260.9 522.382 260.663 521.218 259.891 520.477C256.944 517.65 253.457 522.946 253.172 525.508C252.832 528.566 255.653 530.058 258.147 528.389C259.654 527.381 260.54 525.189 260.764 523.443Z" fill="#F49819"/>
<path d="M314.189 481.304C316.827 481.32 318.91 484.442 317.918 486.884C317.697 487.429 317.356 487.918 317.022 488.402C315.797 490.175 314.572 491.947 313.347 493.719C312.342 495.175 311.327 496.642 310.055 497.873C308.915 498.979 307.434 499.921 305.853 499.781C303.764 499.599 302.324 497.679 301.164 495.931C300.045 494.245 298.926 492.559 297.805 490.875C296.796 489.358 295.758 487.748 295.636 485.933C295.516 484.116 296.692 482.076 298.506 481.933C300.187 481.799 301.53 483.227 303.047 483.969C307.597 486.198 310.052 481.278 314.189 481.304Z" fill="#F49819"/>
<path d="M316.587 494.181C316.134 494.213 315.679 494.35 315.328 494.636C314.944 494.949 314.713 495.407 314.552 495.873C314.041 497.346 314.137 499.018 314.815 500.423C314.997 500.804 315.221 501.165 315.457 501.517C315.641 501.794 315.833 502.071 316.072 502.303C318.013 504.191 321.199 502.219 321.293 499.804C321.39 497.299 319.361 493.981 316.585 494.182L316.587 494.181Z" fill="#F49819"/>
<path d="M311.195 503.287C310.498 502.513 309.377 501.895 308.443 502.358C308.16 502.495 307.93 502.718 307.715 502.947C306.739 503.986 305.968 505.259 305.75 506.666C305.533 508.073 305.94 509.616 306.995 510.571C308.65 512.068 311.279 511.384 312.373 509.529C313.46 507.692 312.505 504.742 311.195 503.287Z" fill="#F49819"/>
<path d="M303.391 506.725C303.754 505.814 304.01 504.84 303.934 503.863C303.857 502.885 303.411 501.905 302.601 501.353C301.581 500.658 300.152 500.778 299.098 501.42C298.044 502.062 297.321 503.141 296.842 504.28C296.074 506.1 295.916 509.62 298.585 510.061C300.835 510.434 302.642 508.595 303.389 506.723L303.391 506.725Z" fill="#F49819"/>
<path d="M291.355 500.968C290.962 500.247 290.882 499.39 290.967 498.573C291.166 496.628 292.327 494.711 294.028 493.711C295.641 492.766 298.098 493.235 298.47 495.339C298.948 498.056 293.611 505.113 291.357 500.966L291.355 500.968Z" fill="#F49819"/>
<path d="M290.705 436.59C290.012 438.15 288.748 439.373 287.766 440.768C286.535 442.516 285.725 444.565 284.282 446.144C282.837 447.72 280.398 448.727 278.549 447.653C277.916 447.285 277.424 446.716 276.948 446.16C275.188 444.101 273.43 442.045 271.67 439.986C269.765 437.756 268.463 434.492 271.153 432.212C273.151 430.52 276.225 431.763 278.278 432.661C279.578 433.23 281.2 433.601 282.338 432.75C282.762 432.433 283.063 431.98 283.431 431.6C286.753 428.157 292.667 432.184 290.704 436.594L290.705 436.59Z" fill="#F49819"/>
<path d="M292.926 443.578C292.151 442.776 291.029 442.086 289.974 442.443C289.35 442.654 288.896 443.193 288.541 443.749C286.73 446.598 286.383 453.688 291.525 452.87C295.714 452.204 295.142 445.865 292.926 443.578Z" fill="#F49819"/>
<path d="M286.981 455.888C286.557 454.325 285.205 452.952 283.587 452.857C283.294 452.839 282.99 452.866 282.72 452.983C282.3 453.167 282.006 453.553 281.762 453.941C280.818 455.437 280.331 457.22 280.384 458.99C280.416 460.074 280.666 461.194 281.347 462.039C282.029 462.884 283.21 463.383 284.238 463.033C287.041 462.082 287.667 458.414 286.981 455.888Z" fill="#F49819"/>
<path d="M278.486 457.679C279.008 456.325 279.254 454.793 278.762 453.428C278.271 452.063 276.887 450.958 275.448 451.141C274.197 451.3 273.248 452.318 272.496 453.326C271.529 454.625 270.672 456.109 270.636 457.729C270.603 459.346 271.657 461.082 273.259 461.314C276.139 461.731 277.507 460.208 278.486 457.679Z" fill="#F49819"/>
<path d="M272.056 445.962C272.041 444.894 271.64 443.773 270.772 443.151C267.455 440.772 264.755 446.508 264.835 449.084C264.93 452.16 267.936 453.236 270.167 451.231C271.517 450.019 272.082 447.721 272.058 445.964L272.056 445.962Z" fill="#F49819"/>
<path d="M329.148 361.174C327.967 362.408 326.365 363.132 324.967 364.112C323.218 365.342 321.763 366.996 319.872 367.991C317.98 368.986 315.342 369.107 313.965 367.472C313.493 366.913 313.225 366.21 312.963 365.524C312.004 362.992 311.045 360.46 310.088 357.93C309.05 355.187 308.928 351.675 312.233 350.438C314.687 349.521 317.157 351.734 318.784 353.272C319.817 354.249 321.215 355.144 322.577 354.729C323.084 354.575 323.519 354.249 323.995 354.014C328.288 351.899 332.488 357.687 329.148 361.174Z" fill="#F49819"/>
<path d="M328.87 368.5C328.412 367.486 327.591 366.455 326.477 366.432C325.817 366.419 325.207 366.772 324.686 367.176C322.019 369.244 319.291 375.798 324.407 376.767C328.573 377.557 330.182 371.397 328.871 368.496L328.87 368.5Z" fill="#F49819"/>
<path d="M319.112 378.074C319.243 376.46 318.434 374.709 316.944 374.072C316.672 373.956 316.381 373.878 316.086 373.898C315.627 373.928 315.222 374.192 314.857 374.474C313.463 375.566 312.401 377.078 311.854 378.761C311.517 379.793 311.374 380.93 311.729 381.956C312.084 382.982 313.027 383.85 314.113 383.87C317.073 383.922 318.903 380.683 319.114 378.076L319.112 378.074Z" fill="#F49819"/>
<path d="M310.512 376.885C311.463 375.789 312.21 374.429 312.209 372.979C312.208 371.529 311.279 370.02 309.866 369.705C308.637 369.433 307.397 370.067 306.347 370.763C304.998 371.66 303.687 372.763 303.109 374.276C302.53 375.787 302.935 377.776 304.364 378.536C306.936 379.903 308.736 378.932 310.514 376.883L310.512 376.885Z" fill="#F49819"/>
<path d="M308.429 363.683C308.775 362.672 308.777 361.483 308.171 360.601C305.854 357.24 301.371 361.724 300.577 364.174C299.626 367.101 302.09 369.129 304.868 368C306.547 367.316 307.857 365.345 308.429 363.683Z" fill="#F49819"/>
<path d="M382.271 357.389C384.091 359.295 383.296 362.966 380.85 363.946C380.303 364.167 379.719 364.264 379.135 364.36C377.01 364.712 374.884 365.062 372.759 365.415C371.015 365.703 369.253 365.994 367.483 365.936C365.898 365.884 364.19 365.475 363.192 364.243C361.872 362.616 362.251 360.244 362.7 358.197C363.133 356.22 363.566 354.243 364.002 352.265C364.392 350.485 364.827 348.62 366.047 347.269C367.268 345.919 369.552 345.347 370.916 346.552C372.182 347.67 372.088 349.627 372.609 351.231C374.171 356.051 379.41 354.395 382.267 357.389L382.271 357.389Z" fill="#F49819"/>
<path d="M374.677 368.065C374.341 367.764 373.925 367.531 373.477 367.476C372.988 367.417 372.496 367.57 372.048 367.779C370.635 368.434 369.498 369.668 368.959 371.131C368.815 371.529 368.711 371.941 368.619 372.354C368.547 372.68 368.483 373.011 368.481 373.342C368.474 376.049 372.104 376.972 373.907 375.358C375.775 373.685 376.75 369.921 374.677 368.065Z" fill="#F49819"/>
<path d="M364.383 370.519C364.457 369.479 364.118 368.246 363.138 367.893C362.842 367.788 362.522 367.777 362.209 367.779C360.785 367.799 359.331 368.13 358.169 368.952C357.008 369.774 356.179 371.139 356.227 372.561C356.3 374.791 358.62 376.205 360.714 375.705C362.791 375.21 364.245 372.472 364.385 370.517L364.383 370.519Z" fill="#F49819"/>
<path d="M356.489 367.3C357.396 366.93 358.275 366.436 358.924 365.703C359.573 364.97 359.969 363.965 359.803 363C359.595 361.783 358.515 360.837 357.321 360.528C356.126 360.216 354.849 360.449 353.699 360.895C351.857 361.608 349.218 363.941 350.753 366.167C352.049 368.045 354.627 368.066 356.491 367.299L356.489 367.3Z" fill="#F49819"/>
<path d="M352.265 354.644C352.509 353.86 353.07 353.207 353.717 352.699C355.256 351.489 357.439 350.99 359.338 351.519C361.139 352.02 362.51 354.114 361.255 355.845C359.632 358.077 350.851 359.147 352.265 354.644Z" fill="#F49819"/>
<path d="M398.094 309.417C396.491 310.003 394.733 309.946 393.045 310.21C390.932 310.541 388.897 311.384 386.76 311.442C384.624 311.5 382.203 310.444 381.69 308.368C381.514 307.656 381.583 306.91 381.652 306.179C381.909 303.483 382.165 300.788 382.422 298.092C382.701 295.172 384.145 291.967 387.652 292.314C390.258 292.572 391.498 295.649 392.28 297.749C392.777 299.08 393.636 300.504 395.038 300.729C395.562 300.814 396.096 300.714 396.626 300.713C401.411 300.707 402.626 307.758 398.09 309.413L398.094 309.417Z" fill="#F49819"/>
<path d="M394.613 315.871C394.647 314.758 394.366 313.47 393.374 312.961C392.789 312.66 392.084 312.706 391.438 312.839C388.133 313.516 382.792 318.198 386.954 321.325C390.344 323.872 394.505 319.056 394.609 315.871L394.613 315.871Z" fill="#F49819"/>
<path d="M381.633 320.158C382.464 318.765 382.507 316.84 381.453 315.61C381.261 315.386 381.032 315.184 380.757 315.073C380.332 314.899 379.851 314.956 379.402 315.051C377.67 315.413 376.052 316.304 374.815 317.573C374.057 318.352 373.427 319.307 373.293 320.385C373.159 321.463 373.62 322.658 374.587 323.154C377.22 324.508 380.292 322.407 381.631 320.16L381.633 320.158Z" fill="#F49819"/>
<path d="M374.44 315.296C375.777 314.731 377.048 313.841 377.687 312.541C378.325 311.238 378.159 309.473 377.028 308.567C376.045 307.78 374.653 307.803 373.404 307.964C371.798 308.171 370.135 308.586 368.948 309.689C367.762 310.792 367.247 312.755 368.193 314.067C369.896 316.43 371.942 316.351 374.44 315.296Z" fill="#F49819"/>
<path d="M378.395 302.527C379.154 301.772 379.678 300.706 379.523 299.647C378.928 295.605 372.929 297.654 371.132 299.502C368.988 301.71 370.304 304.618 373.295 304.827C375.104 304.954 377.149 303.763 378.395 302.523L378.395 302.527Z" fill="#F49819"/>
</g>
<defs>
<clipPath id="clip0_9_983">
<rect width="823.194" height="260.705" fill="white" transform="translate(800.984 201.145) rotate(140.493)"/>
</clipPath>
</defs>
</svg>
