<svg width="448" height="538" viewBox="0 0 448 538" fill="none" xmlns="http://www.w3.org/2000/svg">
<g clip-path="url(#clip0_7_776)">
<path d="M407.124 239.561C408.538 240.52 409.519 241.979 410.718 243.194C412.223 244.713 414.096 245.872 415.392 247.571C416.689 249.27 417.247 251.852 415.865 253.482C415.392 254.041 414.744 254.422 414.111 254.794C411.774 256.162 409.437 257.53 407.102 258.895C404.571 260.375 401.128 261.081 399.358 258.029C398.044 255.762 399.815 252.957 401.06 251.096C401.851 249.915 402.501 248.388 401.865 247.115C401.628 246.64 401.234 246.266 400.923 245.835C398.123 241.955 403.129 236.848 407.124 239.561Z" fill="#F49819"/>
<path d="M414.394 238.613C413.471 239.235 412.591 240.216 412.754 241.318C412.851 241.971 413.301 242.514 413.786 242.96C416.269 245.245 423.187 246.843 423.29 241.636C423.374 237.397 417.032 236.837 414.39 238.614L414.394 238.613Z" fill="#F49819"/>
<path d="M425.461 246.64C423.848 246.779 422.256 247.869 421.876 249.444C421.807 249.731 421.778 250.032 421.847 250.32C421.953 250.767 422.282 251.122 422.621 251.435C423.929 252.628 425.598 253.422 427.348 253.682C428.422 253.841 429.567 253.793 430.519 253.272C431.472 252.751 432.171 251.677 432.009 250.602C431.566 247.676 428.068 246.411 425.463 246.637L425.461 246.64Z" fill="#F49819"/>
<path d="M425.722 255.317C424.483 254.562 423.017 254.052 421.588 254.295C420.158 254.537 418.825 255.705 418.75 257.151C418.686 258.409 419.518 259.526 420.38 260.444C421.489 261.625 422.795 262.734 424.383 263.051C425.97 263.371 427.863 262.64 428.374 261.104C429.294 258.341 428.036 256.727 425.72 255.316L425.722 255.317Z" fill="#F49819"/>
<path d="M413.052 259.572C411.997 259.399 410.825 259.595 410.056 260.339C407.128 263.185 412.296 266.857 414.845 267.232C417.889 267.681 419.478 264.914 417.902 262.363C416.948 260.822 414.786 259.858 413.052 259.572Z" fill="#F49819"/>
<path d="M394.537 187.812C396.113 185.699 399.866 185.871 401.24 188.12C401.548 188.623 401.741 189.182 401.933 189.742C402.635 191.778 403.335 193.816 404.036 195.853C404.611 197.525 405.191 199.213 405.43 200.968C405.643 202.54 405.524 204.292 404.475 205.482C403.091 207.054 400.69 207.076 398.596 206.975C396.574 206.877 394.553 206.779 392.53 206.68C390.709 206.592 388.799 206.474 387.263 205.496C385.728 204.517 384.783 202.36 385.745 200.814C386.636 199.379 388.581 199.146 390.076 198.365C394.568 196.022 392.062 191.132 394.538 187.816L394.537 187.812Z" fill="#F49819"/>
<path d="M406.33 193.52C406.089 193.902 405.929 194.35 405.949 194.802C405.972 195.293 406.206 195.753 406.486 196.16C407.367 197.444 408.774 198.359 410.306 198.647C410.722 198.723 411.146 198.757 411.568 198.779C411.902 198.795 412.239 198.803 412.566 198.749C415.236 198.306 415.541 194.572 413.649 193.064C411.689 191.501 407.814 191.167 406.33 193.52Z" fill="#F49819"/>
<path d="M410.465 203.261C409.428 203.361 408.268 203.901 408.083 204.927C408.029 205.235 408.072 205.553 408.126 205.862C408.383 207.262 408.951 208.641 409.956 209.649C410.96 210.657 412.444 211.247 413.838 210.962C416.025 210.519 417.032 207.996 416.191 206.014C415.356 204.049 412.414 203.071 410.463 203.259L410.465 203.261Z" fill="#F49819"/>
<path d="M408.608 211.581C408.091 210.749 407.457 209.964 406.626 209.446C405.795 208.929 404.739 208.706 403.814 209.03C402.649 209.439 401.897 210.661 401.791 211.889C401.683 213.119 402.126 214.34 402.757 215.4C403.767 217.097 406.507 219.31 408.446 217.425C410.082 215.835 409.672 213.289 408.605 211.58L408.608 211.581Z" fill="#F49819"/>
<path d="M396.832 217.856C396.019 217.746 395.281 217.302 394.672 216.748C393.223 215.433 392.367 213.364 392.572 211.403C392.766 209.543 394.602 207.842 396.518 208.791C398.989 210.019 401.508 218.499 396.832 217.856Z" fill="#F49819"/>
<path d="M344.599 180.206C345.444 181.689 345.681 183.432 346.222 185.053C346.901 187.08 348.071 188.947 348.485 191.044C348.898 193.141 348.26 195.704 346.299 196.556C345.627 196.848 344.879 196.904 344.147 196.958C341.446 197.154 338.746 197.351 336.044 197.546C333.119 197.758 329.718 196.869 329.476 193.353C329.296 190.74 332.123 189.004 334.063 187.883C335.293 187.172 336.554 186.088 336.542 184.667C336.538 184.137 336.351 183.627 336.261 183.104C335.457 178.388 342.208 176.014 344.596 180.211L344.599 180.206Z" fill="#F49819"/>
<path d="M351.543 182.563C350.44 182.714 349.216 183.207 348.88 184.269C348.68 184.897 348.844 185.584 349.083 186.199C350.301 189.344 355.808 193.83 358.198 189.206C360.144 185.439 354.702 182.139 351.544 182.567L351.543 182.563Z" fill="#F49819"/>
<path d="M357.933 194.646C356.422 194.059 354.516 194.338 353.479 195.582C353.291 195.808 353.129 196.069 353.065 196.358C352.965 196.806 353.101 197.271 353.27 197.698C353.915 199.345 355.064 200.792 356.521 201.8C357.415 202.418 358.463 202.88 359.547 202.832C360.632 202.785 361.734 202.131 362.062 201.095C362.958 198.273 360.374 195.594 357.935 194.648L357.933 194.646Z" fill="#F49819"/>
<path d="M354.338 202.55C353.559 201.325 352.469 200.22 351.08 199.807C349.69 199.395 347.977 199.853 347.272 201.12C346.66 202.22 346.915 203.588 347.282 204.793C347.754 206.342 348.44 207.913 349.725 208.899C351.011 209.885 353.032 210.065 354.168 208.914C356.214 206.841 355.795 204.837 354.338 202.55Z" fill="#F49819"/>
<path d="M341.089 200.779C340.218 200.156 339.079 199.816 338.061 200.146C334.175 201.406 337.195 206.98 339.316 208.444C341.851 210.19 344.499 208.407 344.206 205.424C344.031 203.619 342.515 201.801 341.085 200.779L341.089 200.779Z" fill="#F49819"/>
<path d="M352.682 126.741C354.844 125.234 358.35 126.58 358.948 129.147C359.083 129.72 359.088 130.315 359.094 130.904C359.118 133.057 359.141 135.212 359.165 137.365C359.184 139.135 359.204 140.917 358.876 142.657C358.583 144.217 357.918 145.84 356.547 146.641C354.737 147.699 352.451 146.961 350.494 146.205C348.606 145.474 346.718 144.744 344.831 144.015C343.133 143.359 341.354 142.644 340.206 141.231C339.058 139.819 338.841 137.473 340.239 136.309C341.536 135.23 343.458 135.619 345.123 135.352C350.124 134.545 349.288 129.113 352.678 126.746L352.682 126.741Z" fill="#F49819"/>
<path d="M362.077 135.873C361.726 136.161 361.433 136.535 361.31 136.971C361.175 137.445 361.254 137.955 361.39 138.428C361.822 139.924 362.869 141.234 364.234 141.99C364.605 142.196 364.994 142.361 365.39 142.513C365.701 142.633 366.018 142.746 366.346 142.799C369.022 143.221 370.486 139.773 369.164 137.745C367.796 135.644 364.224 134.106 362.074 135.872L362.077 135.873Z" fill="#F49819"/>
<path d="M362.933 146.421C361.916 146.191 360.646 146.336 360.146 147.25C359.997 147.525 359.938 147.84 359.892 148.152C359.695 149.563 359.8 151.048 360.436 152.322C361.073 153.595 362.295 154.62 363.708 154.793C365.922 155.061 367.675 152.986 367.499 150.84C367.326 148.712 364.842 146.855 362.931 146.423L362.933 146.421Z" fill="#F49819"/>
<path d="M358.547 153.73C358.318 152.776 357.964 151.833 357.338 151.078C356.713 150.323 355.78 149.781 354.801 149.797C353.566 149.819 352.47 150.739 351.978 151.873C351.488 153.004 351.521 154.305 351.786 155.51C352.21 157.44 354.114 160.402 356.549 159.224C358.602 158.231 359.014 155.686 358.545 153.728L358.547 153.73Z" fill="#F49819"/>
<path d="M345.394 155.976C344.656 155.614 344.096 154.961 343.692 154.244C342.73 152.539 342.573 150.306 343.384 148.51C344.154 146.805 346.435 145.77 347.952 147.275C349.911 149.219 349.63 158.06 345.394 155.976Z" fill="#F49819"/>
<path d="M307.68 103.788C308.015 105.462 307.69 107.189 307.692 108.896C307.695 111.034 308.222 113.173 307.951 115.295C307.683 117.415 306.27 119.646 304.141 119.837C303.41 119.903 302.681 119.721 301.971 119.539C299.346 118.874 296.722 118.21 294.097 117.544C291.253 116.823 288.306 114.91 289.185 111.494C289.838 108.96 293.069 108.201 295.261 107.748C296.654 107.462 298.19 106.829 298.628 105.476C298.792 104.972 298.775 104.43 298.855 103.905C299.58 99.177 306.732 99.0517 307.677 103.782L307.68 103.788Z" fill="#F49819"/>
<path d="M313.528 108.214C312.433 108.009 311.118 108.09 310.463 108.992C310.076 109.525 310.017 110.229 310.048 110.888C310.216 114.257 314.026 120.25 317.751 116.614C320.785 113.651 316.659 108.805 313.528 108.218L313.528 108.214Z" fill="#F49819"/>
<path d="M315.785 121.695C314.536 120.662 312.638 120.323 311.264 121.179C311.013 121.335 310.781 121.53 310.628 121.784C310.392 122.177 310.373 122.662 310.4 123.119C310.495 124.888 311.126 126.62 312.192 128.037C312.844 128.904 313.697 129.673 314.74 129.971C315.784 130.269 317.037 129.993 317.675 129.114C319.413 126.718 317.805 123.362 315.789 121.695L315.785 121.695Z" fill="#F49819"/>
<path d="M309.883 128.06C309.527 126.653 308.844 125.26 307.654 124.432C306.464 123.603 304.696 123.497 303.626 124.478C302.698 125.33 302.51 126.708 302.478 127.967C302.438 129.585 302.595 131.292 303.501 132.634C304.409 133.974 306.271 134.782 307.713 134.046C310.306 132.724 310.545 130.69 309.883 128.06Z" fill="#F49819"/>
<path d="M297.867 122.204C297.238 121.341 296.263 120.658 295.196 120.65C291.113 120.621 292.219 126.864 293.774 128.921C295.63 131.378 298.703 130.52 299.369 127.596C299.771 125.828 298.905 123.627 297.869 122.206L297.867 122.204Z" fill="#F49819"/>
<path d="M301.468 50.9378C302.739 48.6281 306.478 48.2842 308.152 50.3209C308.525 50.7752 308.796 51.305 309.062 51.8311C310.036 53.7516 311.012 55.6739 311.985 57.5944C312.786 59.1745 313.59 60.7645 314.069 62.4699C314.496 63.9986 314.62 65.7475 313.745 67.0728C312.59 68.8211 310.214 69.1716 308.127 69.3611C306.111 69.5415 304.096 69.7219 302.081 69.9022C300.268 70.0641 298.357 70.211 296.703 69.4515C295.049 68.6921 293.816 66.6859 294.555 65.0216C295.239 63.4794 297.136 62.9789 298.51 62.0006C302.637 59.0635 299.483 54.5633 301.476 50.9372L301.468 50.9378Z" fill="#F49819"/>
<path d="M313.931 54.9678C313.745 55.382 313.646 55.8461 313.732 56.2909C313.823 56.7774 314.117 57.1972 314.45 57.5642C315.501 58.7136 317.02 59.4266 318.574 59.5017C318.999 59.5214 319.42 59.4973 319.842 59.459C320.174 59.4292 320.508 59.3893 320.828 59.2922C323.412 58.4859 323.199 54.7452 321.118 53.5112C318.964 52.2324 315.078 52.4345 313.933 54.9697L313.931 54.9678Z" fill="#F49819"/>
<path d="M319.37 64.0465C318.355 64.2895 317.28 64.9818 317.239 66.0229C317.225 66.3366 317.314 66.6449 317.411 66.9426C317.859 68.2954 318.611 69.5824 319.745 70.4412C320.879 71.3 322.43 71.6821 323.773 71.2071C325.876 70.4672 326.528 67.831 325.421 65.9822C324.324 64.1527 321.277 63.5853 319.369 64.0425L319.37 64.0465Z" fill="#F49819"/>
<path d="M318.671 72.5444C318.044 71.7916 317.309 71.1027 316.415 70.7018C315.52 70.3008 314.442 70.2277 313.575 70.6766C312.479 71.2421 311.902 72.5561 311.964 73.7883C312.027 75.0204 312.632 76.1696 313.405 77.1344C314.639 78.6776 317.659 80.4936 319.32 78.3564C320.721 76.5565 319.965 74.0913 318.675 72.5441L318.671 72.5444Z" fill="#F49819"/>
<path d="M307.874 80.3805C307.054 80.3811 306.261 80.0451 305.582 79.5806C303.967 78.4776 302.832 76.5446 302.767 74.5731C302.703 72.7037 304.287 70.7664 306.314 71.445C308.931 72.3199 312.594 80.3733 307.872 80.3787L307.874 80.3805Z" fill="#F49819"/>
<path d="M250.958 50.2714C251.999 51.6258 252.471 53.3177 253.231 54.8467C254.182 56.7628 255.598 58.4492 256.294 60.4697C256.993 62.4921 256.714 65.1155 254.888 66.2304C254.262 66.6119 253.528 66.7727 252.812 66.9262C250.165 67.4906 247.516 68.057 244.868 68.6214C242 69.2336 238.511 68.822 237.786 65.3705C237.249 62.8075 239.81 60.698 241.577 59.3229C242.696 58.449 243.795 57.2018 243.588 55.7957C243.51 55.2721 243.257 54.7911 243.097 54.2855C241.653 49.725 248.011 46.4438 250.954 50.2716L250.958 50.2714Z" fill="#F49819"/>
<path d="M258.16 51.6517C257.087 51.9529 255.944 52.608 255.756 53.7058C255.645 54.3571 255.902 55.0141 256.224 55.5883C257.865 58.5354 263.934 62.2215 265.666 57.3114C267.076 53.3121 261.231 50.7924 258.162 51.6495L258.16 51.6517Z" fill="#F49819"/>
<path d="M266.152 62.7402C264.576 62.366 262.725 62.9014 261.872 64.2793C261.715 64.529 261.593 64.8083 261.57 65.1026C261.533 65.5602 261.731 66.001 261.956 66.4018C262.822 67.9451 264.159 69.2224 265.739 70.0191C266.708 70.5069 267.813 70.8206 268.88 70.626C269.948 70.4293 270.948 69.6281 271.13 68.5588C271.63 65.6409 268.701 63.3433 266.154 62.742L266.152 62.7402Z" fill="#F49819"/>
<path d="M263.68 71.0625C262.74 69.9573 261.508 69.0133 260.075 68.7932C258.64 68.5753 257.01 69.2652 256.486 70.6175C256.031 71.7905 256.473 73.1118 257.002 74.2544C257.683 75.7229 258.578 77.186 259.986 77.9871C261.395 78.7882 263.42 78.6872 264.389 77.3913C266.129 75.0579 265.44 73.1291 263.682 71.0643L263.68 71.0625Z" fill="#F49819"/>
<path d="M250.312 71.1298C249.364 70.6344 248.191 70.4519 247.228 70.9197C243.552 72.7021 247.31 77.8084 249.614 78.9663C252.365 80.3466 254.743 78.2182 254.043 75.304C253.622 73.5404 251.87 71.9482 250.312 71.1338L250.312 71.1298Z" fill="#F49819"/>
<path d="M217.992 14.541C218.095 11.908 221.286 9.92585 223.694 11.0021C224.231 11.2422 224.709 11.5968 225.183 11.9477C226.915 13.2307 228.643 14.5139 230.374 15.7969C231.795 16.8517 233.228 17.9135 234.417 19.2274C235.481 20.4038 236.376 21.9151 236.184 23.4921C235.933 25.5745 233.965 26.948 232.181 28.0499C230.459 29.1131 228.735 30.1745 227.014 31.2378C225.463 32.1946 223.822 33.178 222.003 33.2401C220.181 33.3004 218.184 32.0564 218.101 30.2385C218.024 28.5524 219.497 27.2585 220.287 25.7668C222.666 21.2934 217.832 18.6772 217.996 14.5447L217.992 14.541Z" fill="#F49819"/>
<path d="M230.943 12.5755C230.961 13.0291 231.08 13.4876 231.355 13.8487C231.654 14.2422 232.106 14.4884 232.566 14.6659C234.019 15.2253 235.696 15.1854 237.122 14.5542C237.508 14.3842 237.876 14.1715 238.237 13.9492C238.521 13.7726 238.802 13.5901 239.044 13.3583C240.996 11.4809 239.131 8.23123 236.719 8.05717C234.219 7.87743 230.835 9.79328 230.944 12.5733L230.943 12.5755Z" fill="#F49819"/>
<path d="M239.864 18.2681C239.066 18.9385 238.413 20.0375 238.843 20.9889C238.971 21.2763 239.187 21.5114 239.407 21.7361C240.412 22.7445 241.661 23.5609 243.061 23.8235C244.461 24.086 246.017 23.7321 247.007 22.7091C248.558 21.105 247.961 18.456 246.146 17.2992C244.346 16.1514 241.367 17.0081 239.866 18.27L239.864 18.2681Z" fill="#F49819"/>
<path d="M243.038 26.1821C242.14 25.7895 241.175 25.4998 240.196 25.5418C239.217 25.5839 238.222 25.9978 237.642 26.789C236.914 27.7851 236.986 29.2169 237.593 30.2919C238.199 31.3669 239.256 32.125 240.375 32.6421C242.168 33.4697 245.682 33.7453 246.213 31.0937C246.661 28.8569 244.882 26.9901 243.038 26.1821Z" fill="#F49819"/>
<path d="M236.881 38.0191C236.148 38.3863 235.288 38.4379 234.474 38.3278C232.537 38.0636 230.66 36.8412 229.719 35.1067C228.827 33.4629 229.378 31.0224 231.495 30.7205C234.227 30.3345 241.102 35.901 236.883 38.017L236.881 38.0191Z" fill="#F49819"/>
<path d="M172.516 36.5229C174.051 37.2688 175.231 38.5713 176.596 39.6C178.304 40.8886 180.323 41.7662 181.849 43.2603C183.378 44.7563 184.301 47.2276 183.167 49.0425C182.778 49.6636 182.195 50.1342 181.619 50.5924C179.503 52.2831 177.388 53.9699 175.272 55.6606C172.981 57.4902 169.675 58.6809 167.486 55.9175C165.861 53.8632 167.207 50.8326 168.172 48.8114C168.785 47.5288 169.209 45.9211 168.396 44.7568C168.092 44.3216 167.651 44.0065 167.28 43.6261C163.949 40.1908 168.17 34.415 172.512 36.5232L172.516 36.5229Z" fill="#F49819"/>
<path d="M179.575 34.5363C178.749 35.283 178.02 36.3834 178.343 37.4485C178.533 38.0803 179.058 38.5538 179.602 38.9237C182.386 40.8268 189.465 41.4123 188.815 36.2457C188.289 32.0384 181.933 32.3973 179.573 34.5345L179.575 34.5363Z" fill="#F49819"/>
<path d="M191.682 40.8867C190.104 41.2583 188.688 42.5642 188.54 44.1783C188.513 44.4728 188.526 44.7765 188.636 45.0512C188.805 45.4781 189.182 45.7858 189.563 46.0411C191.03 47.0344 192.794 47.5795 194.563 47.5851C195.647 47.5897 196.774 47.3767 197.643 46.7232C198.511 46.0719 199.048 44.907 198.733 43.8673C197.876 41.0345 194.229 40.2875 191.682 40.8867Z" fill="#F49819"/>
<path d="M193.187 49.4374C191.853 48.8695 190.328 48.5738 188.947 49.0194C187.566 49.465 186.416 50.8101 186.552 52.2554C186.671 53.5096 187.655 54.4934 188.64 55.2787C189.905 56.2884 191.359 57.1965 192.977 57.285C194.592 57.3718 196.363 56.3772 196.647 54.7835C197.161 51.9187 195.682 50.4994 193.187 49.4374Z" fill="#F49819"/>
<path d="M181.264 55.4721C180.194 55.4505 179.063 55.814 178.411 56.6625C175.922 59.8992 181.565 62.7901 184.143 62.7939C187.22 62.8001 188.395 59.8318 186.467 57.5367C185.301 56.1491 183.022 55.5066 181.264 55.4721Z" fill="#F49819"/>
</g>
<defs>
<clipPath id="clip0_7_776">
<rect width="823.194" height="260.705" fill="white" transform="translate(170.685 -199) rotate(40.8975)"/>
</clipPath>
</defs>
</svg>
