<svg width="474" height="524" viewBox="0 0 474 524" fill="none" xmlns="http://www.w3.org/2000/svg">
<g clip-path="url(#clip0_9_1231)">
<path d="M36.9977 324.315C36.3232 326.861 32.7764 328.1 30.6607 326.527C30.1882 326.175 29.7979 325.726 29.4136 325.278C28.0038 323.65 26.596 322.019 25.1863 320.391C24.0274 319.051 22.8626 317.701 21.9883 316.163C21.2034 314.783 20.6614 313.113 21.1923 311.618C21.8909 309.641 24.1111 308.728 26.0926 308.044C28.0041 307.381 29.9175 306.72 31.829 306.058C33.5483 305.462 35.3676 304.859 37.1557 305.196C38.9458 305.534 40.6254 307.182 40.3113 308.976C40.0177 310.638 38.3012 311.581 37.2032 312.863C33.9073 316.709 38.055 320.317 36.9957 324.313L36.9977 324.315Z" fill="#F49819"/>
<path d="M23.9304 323.411C24.0119 322.963 23.9935 322.492 23.805 322.077C23.5987 321.629 23.212 321.287 22.7991 321.016C21.5007 320.153 19.8585 319.827 18.3281 320.132C17.912 320.214 17.5077 320.341 17.1074 320.479C16.7932 320.588 16.4769 320.707 16.1904 320.879C13.8785 322.286 14.9877 325.863 17.3043 326.559C19.7048 327.28 23.4251 326.148 23.9244 323.409L23.9304 323.411Z" fill="#F49819"/>
<path d="M16.4615 315.913C17.3867 315.432 18.2616 314.5 18.0512 313.481C17.9883 313.173 17.8293 312.897 17.6623 312.628C16.9008 311.424 15.8609 310.357 14.5534 309.794C13.2459 309.231 11.6486 309.24 10.4604 310.021C8.59896 311.247 8.60157 313.962 10.1216 315.489C11.6278 317.002 14.7231 316.814 16.4635 315.911L16.4615 315.913Z" fill="#F49819"/>
<path d="M15.0872 307.499C15.8768 308.078 16.7568 308.571 17.7218 308.744C18.6848 308.916 19.7489 308.728 20.4849 308.085C21.4133 307.271 21.6561 305.858 21.2963 304.677C20.9385 303.494 20.0722 302.526 19.0913 301.778C17.5221 300.579 14.1531 299.545 13.057 302.02C12.1322 304.106 13.462 306.316 15.0852 307.505L15.0872 307.499Z" fill="#F49819"/>
<path d="M23.6748 297.287C24.4732 297.088 25.3203 297.223 26.091 297.51C27.9259 298.19 29.4897 299.794 30.0309 301.691C30.5424 303.49 29.4751 305.753 27.3426 305.583C24.5925 305.365 19.0968 298.434 23.6748 297.287Z" fill="#F49819"/>
<path d="M86.1686 312.77C84.8308 311.707 83.9624 310.179 82.8574 308.877C81.4716 307.249 79.6909 305.953 78.5256 304.161C77.3603 302.37 76.9975 299.753 78.4981 298.231C79.0117 297.71 79.6866 297.378 80.3454 297.055C82.7785 295.866 85.2115 294.678 87.6426 293.491C90.2779 292.206 93.764 291.761 95.3003 294.937C96.4397 297.296 94.4633 299.96 93.0818 301.722C92.2043 302.84 91.4416 304.315 91.9808 305.632C92.181 306.123 92.5454 306.526 92.8237 306.979C95.3246 311.058 89.9485 315.774 86.1686 312.77Z" fill="#F49819"/>
<path d="M78.8483 313.168C79.8158 312.618 80.7666 311.706 80.6864 310.594C80.6387 309.936 80.2309 309.361 79.7808 308.88C77.4763 306.414 70.6985 304.302 70.2047 309.486C69.8023 313.707 76.0841 314.741 78.8523 313.168L78.8483 313.168Z" fill="#F49819"/>
<path d="M68.4153 304.334C70.0347 304.316 71.7034 303.348 72.2005 301.807C72.2914 301.525 72.3424 301.227 72.2954 300.935C72.223 300.481 71.9225 300.102 71.6078 299.765C70.3928 298.477 68.7886 297.56 67.0627 297.17C66.004 296.93 64.8586 296.892 63.8695 297.34C62.8803 297.788 62.1031 298.807 62.1834 299.89C62.4051 302.842 65.7984 304.366 68.4134 304.336L68.4153 304.334Z" fill="#F49819"/>
<path d="M68.8072 295.661C69.9857 296.507 71.409 297.126 72.8528 296.991C74.2967 296.856 75.7138 295.792 75.8966 294.355C76.0549 293.107 75.3093 291.93 74.519 290.95C73.5018 289.689 72.2825 288.485 70.7227 288.049C69.1648 287.611 67.2216 288.198 66.5967 289.691C65.4719 292.378 66.6056 294.081 68.8092 295.663L68.8072 295.661Z" fill="#F49819"/>
<path d="M81.761 292.37C82.7997 292.622 83.9835 292.514 84.8056 291.83C87.9393 289.212 83.0614 285.162 80.5484 284.597C77.546 283.92 75.7537 286.56 77.1339 289.222C77.9699 290.831 80.0532 291.954 81.761 292.37Z" fill="#F49819"/>
<path d="M94.8332 365.317C93.1031 367.306 89.3743 366.852 88.1729 364.507C87.9028 363.982 87.7528 363.41 87.6029 362.838C87.0563 360.754 86.5118 358.669 85.9652 356.586C85.5173 354.875 85.0655 353.148 84.9596 351.381C84.8651 349.797 85.115 348.059 86.2504 346.951C87.7488 345.488 90.1452 345.646 92.2255 345.904C94.2337 346.153 96.242 346.403 98.2523 346.654C100.061 346.879 101.957 347.139 103.415 348.23C104.872 349.321 105.652 351.543 104.578 353.013C103.581 354.376 101.624 354.463 100.074 355.129C95.4193 357.129 97.5509 362.193 94.8332 365.313L94.8332 365.317Z" fill="#F49819"/>
<path d="M83.5028 358.74C83.7719 358.377 83.9654 357.942 83.9789 357.49C83.9926 356.999 83.7944 356.522 83.5459 356.095C82.7629 354.749 81.429 353.731 79.923 353.329C79.5136 353.222 79.094 353.156 78.6744 353.103C78.3427 353.062 78.0069 353.028 77.677 353.057C74.9813 353.299 74.3967 356.999 76.1703 358.645C78.0076 360.351 81.8458 360.975 83.5028 358.74Z" fill="#F49819"/>
<path d="M80.111 348.716C81.1526 348.694 82.3496 348.242 82.611 347.234C82.688 346.93 82.6692 346.61 82.6383 346.298C82.4872 344.882 82.0243 343.465 81.0984 342.384C80.1726 341.303 78.7376 340.604 77.3256 340.783C75.1116 341.061 73.9176 343.501 74.6083 345.541C75.293 347.563 78.1537 348.759 80.113 348.718L80.111 348.716Z" fill="#F49819"/>
<path d="M82.5881 340.559C83.0409 341.428 83.6138 342.258 84.4034 342.836C85.1931 343.415 86.2296 343.717 87.1761 343.462C88.3687 343.143 89.2104 341.98 89.4085 340.764C89.6086 339.545 89.2591 338.294 88.7091 337.191C87.8296 335.422 85.2631 333.01 83.188 334.743C81.4376 336.206 81.6547 338.776 82.5901 340.561L82.5881 340.559Z" fill="#F49819"/>
<path d="M94.8015 335.186C95.6045 335.357 96.3065 335.855 96.8722 336.453C98.2187 337.874 98.9171 340.001 98.5645 341.941C98.2323 343.781 96.2737 345.339 94.4343 344.249C92.0622 342.839 90.1869 334.193 94.8015 335.186Z" fill="#F49819"/>
<path d="M144.059 376.653C143.329 375.111 143.223 373.355 142.805 371.698C142.28 369.625 141.253 367.676 140.999 365.554C140.744 363.432 141.572 360.924 143.592 360.222C144.285 359.98 145.034 359.981 145.768 359.982C148.477 359.99 151.184 359.996 153.892 360.004C156.825 360.013 160.15 361.155 160.128 364.679C160.11 367.298 157.16 368.816 155.142 369.788C153.862 370.406 152.524 371.392 152.429 372.809C152.393 373.339 152.541 373.861 152.591 374.389C153.039 379.153 146.129 381.012 144.063 376.649L144.059 376.653Z" fill="#F49819"/>
<path d="M137.312 373.781C138.424 373.713 139.68 373.314 140.096 372.28C140.342 371.669 140.23 370.971 140.039 370.34C139.06 367.112 133.905 362.225 131.175 366.657C128.952 370.267 134.131 373.967 137.312 373.777L137.312 373.781Z" fill="#F49819"/>
<path d="M131.847 361.252C133.31 361.951 135.232 361.816 136.36 360.653C136.564 360.442 136.745 360.194 136.83 359.911C136.963 359.472 136.863 358.997 136.727 358.559C136.207 356.868 135.17 355.339 133.793 354.224C132.948 353.541 131.938 353.002 130.852 352.968C129.767 352.934 128.62 353.503 128.214 354.511C127.109 357.258 129.484 360.124 131.845 361.25L131.847 361.252Z" fill="#F49819"/>
<path d="M136.026 353.641C136.711 354.921 137.715 356.104 139.068 356.621C140.424 357.135 142.166 356.808 142.964 355.598C143.658 354.547 143.506 353.163 143.231 351.934C142.876 350.353 142.31 348.736 141.103 347.656C139.895 346.576 137.893 346.245 136.674 347.308C134.478 349.221 134.745 351.251 136.026 353.641Z" fill="#F49819"/>
<path d="M149.105 356.402C149.926 357.089 151.036 357.512 152.077 357.26C156.046 356.296 153.453 350.51 151.448 348.892C149.052 346.96 146.277 348.539 146.345 351.536C146.385 353.349 147.759 355.275 149.109 356.402L149.105 356.402Z" fill="#F49819"/>
<path d="M131.984 429.359C129.714 430.7 126.319 429.095 125.916 426.49C125.824 425.908 125.865 425.315 125.903 424.727C126.04 422.578 126.179 420.428 126.317 418.279C126.431 416.512 126.545 414.734 127.003 413.024C127.412 411.49 128.197 409.922 129.625 409.225C131.509 408.307 133.733 409.214 135.627 410.115C137.455 410.986 139.283 411.856 141.11 412.724C142.754 413.506 144.474 414.352 145.513 415.847C146.551 417.342 146.591 419.698 145.11 420.754C143.735 421.732 141.848 421.199 140.168 421.341C135.121 421.77 135.546 427.25 131.988 429.355L131.984 429.359Z" fill="#F49819"/>
<path d="M123.302 419.547C123.672 419.287 123.993 418.936 124.149 418.511C124.318 418.048 124.278 417.534 124.178 417.052C123.859 415.527 122.914 414.142 121.61 413.286C121.255 413.053 120.88 412.859 120.497 412.678C120.195 412.535 119.888 412.398 119.564 412.321C116.927 411.699 115.209 415.027 116.375 417.149C117.581 419.346 121.027 421.148 123.304 419.549L123.302 419.547Z" fill="#F49819"/>
<path d="M123.24 408.966C124.237 409.271 125.514 409.222 126.081 408.349C126.25 408.085 126.333 407.776 126.402 407.468C126.705 406.076 126.712 404.587 126.173 403.269C125.633 401.952 124.492 400.838 123.095 400.559C120.908 400.125 119.004 402.063 119.018 404.216C119.031 406.351 121.369 408.389 123.242 408.964L123.24 408.966Z" fill="#F49819"/>
<path d="M128.162 402.007C128.319 402.975 128.601 403.942 129.168 404.741C129.735 405.541 130.625 406.152 131.602 406.21C132.835 406.28 133.998 405.445 134.573 404.352C135.147 403.26 135.211 401.961 135.038 400.739C134.76 398.783 133.084 395.686 130.568 396.678C128.446 397.514 127.843 400.021 128.164 402.009L128.162 402.007Z" fill="#F49819"/>
<path d="M141.447 400.755C142.155 401.171 142.664 401.865 143.014 402.61C143.845 404.382 143.833 406.621 142.89 408.351C141.995 409.993 139.643 410.854 138.243 409.239C136.435 407.153 137.379 398.359 141.447 400.755Z" fill="#F49819"/>
<path d="M175.135 455.628C174.927 453.934 175.38 452.236 175.506 450.533C175.663 448.401 175.299 446.229 175.728 444.133C176.155 442.04 177.732 439.92 179.869 439.89C180.603 439.879 181.316 440.115 182.01 440.35C184.578 441.211 187.144 442.07 189.712 442.931C192.494 443.863 195.289 445.993 194.156 449.333C193.314 451.811 190.036 452.324 187.816 452.612C186.406 452.793 184.826 453.309 184.288 454.624C184.087 455.115 184.063 455.657 183.943 456.174C182.865 460.834 175.724 460.422 175.137 455.634L175.135 455.628Z" fill="#F49819"/>
<path d="M169.636 450.776C170.712 451.062 172.03 451.08 172.75 450.229C173.176 449.727 173.288 449.03 173.307 448.37C173.392 444.998 170.043 438.736 166.055 442.082C162.807 444.809 166.558 449.951 169.636 450.772L169.636 450.776Z" fill="#F49819"/>
<path d="M168.397 437.163C169.565 438.287 171.432 438.767 172.866 438.017C173.129 437.88 173.375 437.703 173.546 437.462C173.811 437.087 173.867 436.605 173.875 436.148C173.913 434.376 173.413 432.601 172.457 431.108C171.872 430.195 171.079 429.364 170.061 428.988C169.043 428.613 167.773 428.794 167.07 429.623C165.157 431.881 166.508 435.349 168.393 437.163L168.397 437.163Z" fill="#F49819"/>
<path d="M174.761 431.259C175.01 432.689 175.587 434.129 176.711 435.044C177.835 435.96 179.59 436.199 180.731 435.301C181.721 434.521 182.011 433.161 182.138 431.908C182.299 430.297 182.271 428.584 181.468 427.177C180.664 425.773 178.868 424.827 177.374 425.453C174.689 426.577 174.298 428.586 174.761 431.259Z" fill="#F49819"/>
<path d="M186.303 438.001C186.865 438.908 187.786 439.664 188.85 439.751C192.919 440.086 192.285 433.779 190.889 431.61C189.223 429.021 186.094 429.646 185.21 432.511C184.676 434.244 185.374 436.504 186.301 437.999L186.303 438.001Z" fill="#F49819"/>
<path d="M177.36 508.795C175.919 511.003 172.164 511.065 170.648 508.909C170.31 508.428 170.08 507.879 169.854 507.334C169.027 505.346 168.199 503.356 167.372 501.368C166.692 499.732 166.01 498.086 165.66 496.349C165.349 494.793 165.357 493.04 166.329 491.784C167.613 490.127 170.008 489.956 172.103 489.924C174.127 489.896 176.15 489.867 178.173 489.839C179.992 489.813 181.91 489.81 183.502 490.692C185.094 491.573 186.172 493.666 185.311 495.271C184.512 496.757 182.584 497.114 181.14 497.986C176.804 500.605 179.611 505.329 177.352 508.795L177.36 508.795Z" fill="#F49819"/>
<path d="M165.234 503.841C165.451 503.442 165.585 502.986 165.532 502.536C165.478 502.044 165.216 501.604 164.911 501.213C163.95 499.988 162.489 499.163 160.945 498.971C160.523 498.919 160.101 498.912 159.678 498.918C159.344 498.923 159.008 498.938 158.682 499.01C156.045 499.62 155.976 503.367 157.958 504.753C160.01 506.19 163.9 506.281 165.232 503.839L165.234 503.841Z" fill="#F49819"/>
<path d="M160.493 494.379C161.523 494.213 162.647 493.604 162.766 492.568C162.803 492.257 162.738 491.943 162.663 491.638C162.318 490.256 161.665 488.916 160.599 487.974C159.533 487.033 158.015 486.535 156.64 486.908C154.487 487.488 153.639 490.068 154.604 491.994C155.561 493.901 158.557 494.696 160.493 494.383L160.493 494.379Z" fill="#F49819"/>
<path d="M161.827 485.958C162.396 486.755 163.078 487.498 163.94 487.965C164.802 488.432 165.871 488.586 166.77 488.203C167.905 487.721 168.579 486.454 168.609 485.221C168.639 483.988 168.122 482.796 167.423 481.776C166.31 480.145 163.434 478.107 161.618 480.113C160.085 481.803 160.654 484.318 161.823 485.958L161.827 485.958Z" fill="#F49819"/>
<path d="M173.183 478.955C174 479.016 174.767 479.41 175.408 479.925C176.936 481.146 177.922 483.158 177.839 485.129C177.763 486.998 176.037 488.811 174.067 487.982C171.524 486.913 168.476 478.607 173.185 478.957L173.183 478.955Z" fill="#F49819"/>
<path d="M227.677 513.254C226.74 511.825 226.396 510.102 225.754 508.521C224.949 506.539 223.664 504.751 223.121 502.683C222.577 500.614 223.052 498.019 224.956 497.045C225.609 496.711 226.353 496.606 227.079 496.507C229.761 496.143 232.445 495.777 235.127 495.413C238.033 495.018 241.482 495.69 241.945 499.187C242.288 501.783 239.577 503.694 237.711 504.932C236.529 505.72 235.34 506.881 235.441 508.299C235.479 508.826 235.695 509.325 235.817 509.841C236.915 514.497 230.328 517.292 227.681 513.254L227.677 513.254Z" fill="#F49819"/>
<path d="M220.599 511.336C221.691 511.116 222.88 510.549 223.15 509.469C223.31 508.827 223.102 508.153 222.825 507.556C221.41 504.494 215.635 500.363 213.539 505.129C211.832 509.011 217.472 511.962 220.597 511.338L220.599 511.336Z" fill="#F49819"/>
<path d="M213.462 499.679C215.006 500.17 216.892 499.776 217.846 498.466C218.021 498.228 218.164 497.959 218.209 497.667C218.28 497.214 218.116 496.759 217.922 496.343C217.173 494.739 215.937 493.365 214.42 492.451C213.491 491.892 212.413 491.496 211.335 491.61C210.255 491.726 209.197 492.45 208.935 493.503C208.218 496.375 210.966 498.886 213.46 499.677L213.462 499.679Z" fill="#F49819"/>
<path d="M216.553 491.566C217.406 492.738 218.564 493.772 219.976 494.099C221.391 494.424 223.068 493.859 223.692 492.55C224.234 491.414 223.893 490.064 223.451 488.884C222.882 487.369 222.1 485.843 220.756 484.938C219.411 484.034 217.385 483.982 216.321 485.202C214.41 487.398 214.953 489.373 216.551 491.564L216.553 491.566Z" fill="#F49819"/>
<path d="M229.888 492.503C230.795 493.068 231.952 493.338 232.947 492.944C236.746 491.443 233.382 486.068 231.172 484.741C228.533 483.158 226.001 485.102 226.481 488.06C226.768 489.85 228.396 491.57 229.888 492.499L229.888 492.503Z" fill="#F49819"/>
<path d="M378.47 534.758C379.523 534.952 380.699 534.777 381.479 534.046C384.46 531.254 379.357 527.491 376.813 527.067C373.776 526.564 372.138 529.303 373.67 531.882C374.596 533.441 376.742 534.442 378.47 534.758Z" fill="#F49819"/>
</g>
<defs>
<clipPath id="clip0_9_1231">
<rect width="823.194" height="260.705" fill="white" transform="translate(289 767.85) rotate(-134.795)"/>
</clipPath>
</defs>
</svg>
