<svg width="798" height="491" viewBox="0 0 798 491" fill="none" xmlns="http://www.w3.org/2000/svg">
<g clip-path="url(#clip0_7_633)">
<path d="M656.62 41.8121C658.324 41.9112 659.914 42.6606 661.568 43.0871C663.637 43.6211 665.84 43.6567 667.826 44.4485C669.81 45.2438 671.612 47.1716 671.261 49.28C671.141 50.0036 670.782 50.662 670.428 51.3034C669.121 53.6746 667.818 56.0476 666.511 58.4188C665.098 60.9871 662.502 63.3578 659.417 61.6449C657.129 60.3733 657.21 57.0581 657.326 54.8201C657.4 53.402 657.175 51.7535 655.978 50.991C655.53 50.7066 655.002 50.5834 654.514 50.3752C650.12 48.4803 651.803 41.5279 656.622 41.8085L656.62 41.8121Z" fill="#F49819"/>
<path d="M662.377 37.268C661.902 38.2755 661.649 39.5691 662.358 40.4309C662.777 40.9398 663.442 41.1751 664.087 41.3094C667.389 41.9971 674.148 39.8209 671.569 35.3C669.47 31.6167 663.738 34.3862 662.377 37.268Z" fill="#F49819"/>
<path d="M675.993 38.4856C674.677 39.4337 673.872 41.1852 674.355 42.7318C674.441 43.013 674.572 43.2879 674.778 43.499C675.097 43.8268 675.562 43.9654 676.013 44.0576C677.748 44.4123 679.587 44.2391 681.224 43.5643C682.228 43.1511 683.189 42.5226 683.738 41.5855C684.288 40.651 684.339 39.3689 683.65 38.5303C681.771 36.2434 678.117 36.9543 675.995 38.4847L675.993 38.4856Z" fill="#F49819"/>
<path d="M680.664 45.8031C679.213 45.7915 677.694 46.1011 676.588 47.0439C675.486 47.9858 674.938 49.6712 675.618 50.9515C676.209 52.0649 677.494 52.5947 678.704 52.9415C680.26 53.3889 681.951 53.6687 683.478 53.1266C685.006 52.5872 686.257 50.9868 685.908 49.4067C685.283 46.5626 683.374 45.8224 680.663 45.8004L680.664 45.8031Z" fill="#F49819"/>
<path d="M671.967 55.9516C670.971 56.3442 670.066 57.1119 669.788 58.1455C668.732 62.0909 675.052 62.5929 677.432 61.6078C680.277 60.4333 680.223 57.2411 677.561 55.8601C675.951 55.0249 673.602 55.3072 671.966 55.949L671.967 55.9516Z" fill="#F49819"/>
<path d="M607.76 27.4224C606.413 25.1559 608.01 21.7592 610.614 21.3489C611.195 21.2574 611.788 21.2927 612.377 21.3298C614.526 21.4639 616.678 21.5971 618.827 21.7312C620.595 21.8417 622.375 21.9512 624.086 22.4061C625.62 22.8134 627.19 23.5933 627.889 25.0193C628.81 26.9012 627.911 29.126 627.014 31.0219C626.148 32.8506 625.282 34.682 624.416 36.5107C623.638 38.1576 622.795 39.8771 621.303 40.9206C619.81 41.9614 617.457 42.0095 616.396 40.5295C615.414 39.1574 615.944 37.2692 615.795 35.5891C615.354 30.5434 609.874 30.9814 607.761 27.4251L607.76 27.4224Z" fill="#F49819"/>
<path d="M617.551 18.7189C617.813 19.0898 618.162 19.4076 618.59 19.5616C619.056 19.7297 619.567 19.6884 620.052 19.5874C621.575 19.2643 622.96 18.3169 623.812 17.0121C624.044 16.6563 624.235 16.2784 624.417 15.8978C624.56 15.596 624.695 15.2879 624.773 14.9631C625.388 12.3272 622.056 10.6144 619.937 11.7826C617.744 12.9941 615.947 16.4435 617.553 18.718L617.551 18.7189Z" fill="#F49819"/>
<path d="M628.133 18.6328C627.831 19.6298 627.88 20.908 628.757 21.4714C629.02 21.6421 629.331 21.7223 629.637 21.7891C631.03 22.0887 632.521 22.093 633.839 21.5499C635.156 21.0068 636.269 19.8646 636.54 18.4663C636.969 16.2781 635.024 14.3803 632.872 14.3964C630.739 14.4152 628.706 16.7569 628.132 18.6301L628.133 18.6328Z" fill="#F49819"/>
<path d="M635.106 23.5387C634.14 23.6978 633.173 23.9822 632.374 24.5501C631.576 25.1208 630.966 26.0099 630.913 26.9854C630.845 28.2166 631.685 29.3801 632.779 29.9508C633.873 30.5216 635.17 30.5819 636.394 30.4048C638.348 30.1213 641.445 28.438 640.445 25.9261C639.604 23.8052 637.093 23.2085 635.106 23.536L635.106 23.5387Z" fill="#F49819"/>
<path d="M636.388 36.8181C635.974 37.5277 635.281 38.0389 634.537 38.3886C632.768 39.2239 630.526 39.2198 628.794 38.2795C627.15 37.3873 626.283 35.0394 627.896 33.6361C629.976 31.8243 638.775 32.7488 636.389 36.8208L636.388 36.8181Z" fill="#F49819"/>
<path d="M581.592 70.6271C583.288 70.416 584.985 70.8665 586.688 70.987C588.822 71.1382 590.994 70.7725 593.09 71.1928C595.187 71.6159 597.308 73.1858 597.342 75.3222C597.354 76.0552 597.12 76.7695 596.889 77.465C596.035 80.0356 595.182 82.6027 594.328 85.1733C593.402 87.9561 591.279 90.7577 587.936 89.6304C585.454 88.794 584.933 85.5178 584.641 83.2983C584.455 81.8901 583.937 80.3106 582.62 79.7765C582.13 79.5781 581.587 79.5524 581.069 79.4345C576.406 78.3676 576.802 71.2261 581.589 70.628L581.592 70.6271Z" fill="#F49819"/>
<path d="M586.43 65.1192C586.146 66.1966 586.131 67.5143 586.982 68.2326C587.487 68.6589 588.184 68.7698 588.842 68.7834C592.214 68.8629 598.467 65.497 595.114 61.518C592.381 58.2751 587.247 62.0391 586.43 65.1192Z" fill="#F49819"/>
<path d="M600.042 63.8471C598.921 65.0188 598.447 66.8854 599.199 68.32C599.335 68.5815 599.514 68.8284 599.756 68.9974C600.132 69.2615 600.612 69.3142 601.072 69.3232C602.841 69.3586 604.62 68.854 606.107 67.8928C607.018 67.3048 607.849 66.5114 608.222 65.4936C608.593 64.4731 608.41 63.2043 607.58 62.5057C605.317 60.5993 601.853 61.9559 600.044 63.8462L600.042 63.8471Z" fill="#F49819"/>
<path d="M605.962 70.1971C604.534 70.4492 603.095 71.0303 602.18 72.1565C601.265 73.2827 601.033 75.0376 601.933 76.1749C602.714 77.1616 604.076 77.4506 605.33 77.5738C606.94 77.7313 608.654 77.699 610.059 76.8909C611.463 76.0829 612.403 74.2861 611.773 72.792C610.642 70.1099 608.632 69.7258 605.961 70.1944L605.962 70.1971Z" fill="#F49819"/>
<path d="M599.248 81.7561C598.34 82.3218 597.589 83.2436 597.503 84.3077C597.179 88.3791 603.486 87.728 605.648 86.3271C608.232 84.6556 607.603 81.5264 604.733 80.6512C603 80.1231 600.738 80.8235 599.247 81.7534L599.248 81.7561Z" fill="#F49819"/>
<path d="M533.881 83.0528C531.583 81.7607 531.275 78.0189 533.329 76.3654C533.786 75.9963 534.321 75.7323 534.847 75.4711C536.778 74.5154 538.708 73.5597 540.639 72.604C542.224 71.8185 543.825 71.0276 545.532 70.568C547.064 70.1555 548.816 70.0506 550.133 70.937C551.871 72.1078 552.2 74.4881 552.365 76.5776C552.526 78.5937 552.688 80.6126 552.849 82.6288C552.993 84.4447 553.121 86.3556 552.346 88.0016C551.571 89.6502 549.551 90.8629 547.896 90.1056C546.359 89.4069 545.879 87.5073 544.913 86.1208C542.017 81.9666 537.482 85.0749 533.879 83.0475L533.881 83.0528Z" fill="#F49819"/>
<path d="M538.033 70.6283C538.443 70.818 538.907 70.9209 539.355 70.8414C539.842 70.7547 540.267 70.4652 540.636 70.1349C541.798 69.0953 542.524 67.5854 542.614 66.0305C542.638 65.6075 542.618 65.1847 542.582 64.7611C542.556 64.4269 542.521 64.0927 542.425 63.773C541.643 61.1817 537.901 61.3584 536.647 63.4254C535.346 65.5678 535.512 69.4532 538.035 70.6247L538.033 70.6283Z" fill="#F49819"/>
<path d="M547.166 65.2822C547.398 66.2986 548.083 67.3804 549.121 67.4329C549.434 67.4496 549.743 67.3662 550.042 67.2712C551.4 66.837 552.693 66.0965 553.567 64.9722C554.437 63.8461 554.832 62.3016 554.374 60.9526C553.653 58.842 551.023 58.1661 549.166 59.2521C547.324 60.3299 546.728 63.3743 547.167 65.2849L547.166 65.2822Z" fill="#F49819"/>
<path d="M555.659 66.0621C554.902 66.6818 554.204 67.4094 553.794 68.2995C553.387 69.1887 553.3 70.2654 553.741 71.1398C554.295 72.2418 555.603 72.8296 556.837 72.7803C558.071 72.731 559.225 72.1357 560.197 71.3749C561.752 70.1551 563.596 67.1552 561.48 65.4736C559.694 64.0562 557.219 64.7869 555.659 66.0621Z" fill="#F49819"/>
<path d="M563.39 76.9359C563.383 77.7557 563.038 78.5464 562.569 79.2177C561.452 80.8238 559.506 81.9369 557.534 81.9846C555.664 82.0309 553.741 80.4272 554.441 78.4069C555.343 75.7994 563.43 72.2174 563.39 76.9359Z" fill="#F49819"/>
<path d="M532.727 133.546C534.09 132.519 535.789 132.062 537.326 131.317C539.249 130.385 540.95 128.988 542.98 128.309C545.007 127.631 547.629 127.936 548.726 129.771C549.102 130.402 549.254 131.135 549.401 131.852C549.941 134.505 550.481 137.159 551.021 139.811C551.606 142.684 551.158 146.171 547.702 146.859C545.133 147.371 543.05 144.789 541.692 143.01C540.83 141.881 539.59 140.771 538.184 140.963C537.659 141.035 537.176 141.285 536.668 141.441C532.091 142.84 528.876 136.451 532.73 133.545L532.727 133.546Z" fill="#F49819"/>
<path d="M534.176 126.36C534.464 127.435 535.111 128.583 536.208 128.783C536.856 128.901 537.514 128.649 538.094 128.334C541.057 126.723 544.805 120.691 539.911 118.911C535.925 117.464 533.349 123.282 534.176 126.36Z" fill="#F49819"/>
<path d="M545.344 118.477C544.956 120.049 545.475 121.906 546.842 122.775C547.092 122.932 547.367 123.057 547.663 123.086C548.12 123.129 548.564 122.934 548.967 122.714C550.518 121.863 551.808 120.538 552.621 118.966C553.119 118.002 553.443 116.902 553.259 115.833C553.074 114.765 552.28 113.756 551.212 113.561C548.298 113.035 545.974 115.938 545.345 118.48L545.344 118.477Z" fill="#F49819"/>
<path d="M553.643 121.032C552.531 121.962 551.572 123.181 551.339 124.614C551.107 126.047 551.781 127.684 553.13 128.222C554.299 128.69 555.623 128.261 556.773 127.742C558.248 127.074 559.721 126.195 560.535 124.796C561.349 123.396 561.27 121.367 559.979 120.389C557.663 118.626 555.727 119.294 553.643 121.032Z" fill="#F49819"/>
<path d="M553.58 134.395C553.075 135.338 552.882 136.51 553.34 137.478C555.087 141.169 560.231 137.462 561.409 135.17C562.817 132.433 560.712 130.035 557.787 130.705C556.02 131.111 554.412 132.844 553.58 134.395Z" fill="#F49819"/>
<path d="M488.651 154.746C486.192 153.792 485.357 150.132 487.154 148.204C487.555 147.774 488.047 147.437 488.532 147.104C490.307 145.884 492.083 144.664 493.859 143.445C495.317 142.443 496.788 141.433 498.415 140.735C499.874 140.108 501.593 139.755 503.021 140.449C504.908 141.363 505.57 143.67 506.031 145.716C506.476 147.69 506.921 149.664 507.369 151.637C507.772 153.414 508.168 155.288 507.636 157.028C507.102 158.769 505.276 160.256 503.53 159.744C501.911 159.27 501.165 157.457 500.012 156.223C496.554 152.521 492.507 156.243 488.651 154.746Z" fill="#F49819"/>
<path d="M490.997 141.86C491.432 141.99 491.906 142.024 492.335 141.882C492.805 141.727 493.184 141.381 493.501 141.003C494.503 139.808 495.009 138.212 494.875 136.658C494.841 136.237 494.76 135.819 494.665 135.407C494.592 135.083 494.511 134.755 494.37 134.453C493.229 131.998 489.549 132.706 488.601 134.929C487.619 137.235 488.333 141.058 490.999 141.859L490.997 141.86Z" fill="#F49819"/>
<path d="M499.278 135.271C499.653 136.242 500.481 137.219 501.519 137.119C501.831 137.091 502.126 136.965 502.408 136.828C503.69 136.204 504.864 135.289 505.569 134.052C506.273 132.815 506.442 131.227 505.796 129.959C504.782 127.971 502.083 127.674 500.4 129.018C498.73 130.348 498.572 133.444 499.278 135.271Z" fill="#F49819"/>
<path d="M507.794 134.837C507.131 135.56 506.545 136.378 506.268 137.318C505.992 138.259 506.059 139.334 506.62 140.139C507.325 141.151 508.704 141.548 509.917 141.323C511.13 141.099 512.19 140.347 513.043 139.454C514.409 138.026 515.81 134.794 513.473 133.431C511.504 132.282 509.16 133.356 507.795 134.84L507.794 134.837Z" fill="#F49819"/>
<path d="M516.991 144.503C517.102 145.316 516.871 146.146 516.501 146.88C515.622 148.626 513.855 150.004 511.909 150.332C510.065 150.641 507.936 149.328 508.338 147.229C508.859 144.52 516.359 139.827 516.989 144.504L516.991 144.503Z" fill="#F49819"/>
<path d="M494.673 204.892C495.876 203.68 497.492 202.989 498.907 202.034C500.679 200.839 502.166 199.213 504.077 198.252C505.988 197.294 508.626 197.221 509.971 198.882C510.432 199.452 510.688 200.159 510.936 200.848C511.847 203.399 512.758 205.947 513.669 208.497C514.654 211.259 514.709 214.773 511.384 215.946C508.914 216.815 506.484 214.559 504.886 212.988C503.873 211.994 502.49 211.07 501.123 211.46C500.614 211.604 500.172 211.921 499.693 212.145C495.362 214.179 491.269 208.31 494.675 204.888L494.673 204.892Z" fill="#F49819"/>
<path d="M495.085 197.571C495.524 198.596 496.327 199.641 497.439 199.683C498.098 199.708 498.714 199.366 499.244 198.973C501.95 196.956 504.8 190.454 499.704 189.387C495.552 188.517 493.829 194.645 495.085 197.571Z" fill="#F49819"/>
<path d="M505.025 188.185C504.864 189.797 505.639 191.561 507.116 192.226C507.384 192.347 507.678 192.43 507.972 192.418C508.43 192.394 508.842 192.139 509.208 191.863C510.623 190.801 511.713 189.309 512.294 187.636C512.65 186.612 512.816 185.476 512.479 184.444C512.143 183.411 511.217 182.525 510.132 182.485C507.174 182.376 505.283 185.58 505.025 188.185Z" fill="#F49819"/>
<path d="M513.601 189.537C512.631 190.616 511.855 191.961 511.828 193.411C511.801 194.861 512.701 196.386 514.111 196.728C515.336 197.024 516.586 196.412 517.648 195.737C519.013 194.868 520.344 193.786 520.953 192.286C521.56 190.786 521.194 188.789 519.779 188.001C517.237 186.586 515.416 187.522 513.601 189.537Z" fill="#F49819"/>
<path d="M515.436 202.776C515.07 203.779 515.045 204.969 515.635 205.859C517.888 209.264 522.452 204.865 523.296 202.43C524.302 199.522 521.877 197.446 519.078 198.525C517.385 199.177 516.039 201.122 515.435 202.773L515.436 202.776Z" fill="#F49819"/>
<path d="M443.2 212.447C441.211 210.719 441.663 206.99 444.007 205.784C444.531 205.515 445.106 205.362 445.677 205.214C447.76 204.667 449.844 204.122 451.928 203.574C453.641 203.124 455.366 202.673 457.132 202.567C458.717 202.47 460.455 202.719 461.563 203.855C463.029 205.353 462.871 207.749 462.612 209.829C462.364 211.837 462.114 213.846 461.866 215.854C461.643 217.659 461.382 219.558 460.292 221.015C459.2 222.473 456.98 223.254 455.508 222.182C454.146 221.185 454.056 219.229 453.389 217.679C451.389 213.025 446.323 215.158 443.202 212.446L443.2 212.447Z" fill="#F49819"/>
<path d="M449.77 201.115C450.136 201.386 450.568 201.577 451.023 201.591C451.516 201.603 451.993 201.407 452.419 201.156C453.765 200.37 454.781 199.04 455.183 197.532C455.292 197.122 455.357 196.703 455.409 196.283C455.45 195.953 455.483 195.617 455.454 195.283C455.21 192.588 451.51 192.008 449.865 193.78C448.16 195.617 447.536 199.456 449.775 201.111L449.77 201.115Z" fill="#F49819"/>
<path d="M459.793 197.716C459.816 198.758 460.268 199.954 461.274 200.214C461.579 200.294 461.897 200.273 462.212 200.241C463.628 200.088 465.045 199.625 466.126 198.7C467.207 197.774 467.904 196.336 467.726 194.926C467.446 192.714 465.007 191.52 462.967 192.211C460.945 192.897 459.75 195.758 459.794 197.718L459.793 197.716Z" fill="#F49819"/>
<path d="M467.951 200.19C467.083 200.644 466.253 201.217 465.672 202.006C465.094 202.795 464.793 203.833 465.046 204.777C465.368 205.969 466.529 206.81 467.747 207.007C468.967 207.208 470.218 206.857 471.321 206.306C473.089 205.426 475.502 202.857 473.764 200.783C472.299 199.033 469.729 199.253 467.946 200.186L467.951 200.19Z" fill="#F49819"/>
<path d="M473.333 212.399C473.159 213.204 472.665 213.905 472.068 214.47C470.648 215.817 468.52 216.514 466.579 216.164C464.738 215.83 463.177 213.875 464.269 212.035C465.677 209.663 474.321 207.785 473.333 212.399Z" fill="#F49819"/>
<path d="M431.893 261.673C433.436 260.94 435.191 260.835 436.846 260.416C438.918 259.89 440.867 258.863 442.988 258.606C445.11 258.35 447.618 259.177 448.323 261.195C448.565 261.886 448.565 262.638 448.565 263.372C448.56 266.08 448.554 268.787 448.548 271.493C448.541 274.425 447.404 277.75 443.875 277.729C441.255 277.712 439.736 274.764 438.763 272.748C438.146 271.467 437.158 270.133 435.738 270.036C435.209 270 434.687 270.149 434.158 270.199C429.393 270.646 427.529 263.742 431.893 261.673Z" fill="#F49819"/>
<path d="M434.761 254.926C434.828 256.037 435.228 257.293 436.261 257.711C436.873 257.958 437.569 257.845 438.2 257.653C441.428 256.671 446.311 251.518 441.876 248.79C438.264 246.569 434.567 251.752 434.759 254.93L434.761 254.926Z" fill="#F49819"/>
<path d="M447.289 249.455C446.592 250.916 446.725 252.841 447.889 253.966C448.102 254.172 448.347 254.349 448.63 254.436C449.069 254.571 449.542 254.468 449.983 254.334C451.675 253.811 453.205 252.775 454.316 251.398C454.998 250.553 455.537 249.542 455.571 248.457C455.604 247.371 455.033 246.225 454.024 245.819C451.277 244.717 448.414 247.092 447.288 249.452L447.289 249.455Z" fill="#F49819"/>
<path d="M454.902 253.629C453.623 254.314 452.44 255.319 451.925 256.674C451.409 258.03 451.74 259.771 452.949 260.568C454 261.26 455.385 261.11 456.613 260.832C458.194 260.475 459.812 259.911 460.89 258.703C461.969 257.497 462.299 255.495 461.235 254.276C459.319 252.082 457.29 252.349 454.899 253.63L454.902 253.629Z" fill="#F49819"/>
<path d="M452.147 266.707C451.463 267.529 451.038 268.639 451.29 269.678C452.258 273.645 458.044 271.051 459.659 269.044C461.589 266.648 460.009 263.875 457.012 263.941C455.199 263.983 453.273 265.358 452.147 266.707Z" fill="#F49819"/>
<path d="M380.905 246.292C379.882 243.862 381.933 240.715 384.567 240.67C385.158 240.659 385.737 240.777 386.317 240.895C388.428 241.322 390.54 241.752 392.65 242.18C394.384 242.532 396.133 242.887 397.766 243.571C399.23 244.184 400.68 245.175 401.173 246.682C401.827 248.672 400.628 250.753 399.48 252.507C398.371 254.2 397.263 255.893 396.151 257.586C395.152 259.111 394.082 260.698 392.461 261.526C390.839 262.353 388.501 262.074 387.655 260.462C386.87 258.967 387.655 257.171 387.74 255.487C387.997 250.427 382.512 250.108 380.908 246.294L380.905 246.292Z" fill="#F49819"/>
<path d="M391.802 239.02C392.009 239.421 392.315 239.787 392.714 239.998C393.15 240.227 393.665 240.259 394.157 240.224C395.711 240.115 397.213 239.366 398.237 238.191C398.514 237.871 398.758 237.523 398.991 237.17C399.174 236.891 399.352 236.604 399.471 236.295C400.442 233.769 397.378 231.613 395.119 232.48C392.778 233.377 390.526 236.548 391.802 239.02Z" fill="#F49819"/>
<path d="M402.295 240.393C401.856 241.338 401.734 242.611 402.524 243.29C402.762 243.493 403.058 243.617 403.352 243.727C404.689 244.216 406.165 244.425 407.544 244.07C408.922 243.715 410.182 242.735 410.644 241.389C411.37 239.279 409.706 237.132 407.57 236.853C405.454 236.577 403.12 238.617 402.293 240.394L402.295 240.393Z" fill="#F49819"/>
<path d="M408.526 246.212C407.546 246.235 406.549 246.384 405.681 246.838C404.814 247.291 404.086 248.089 403.897 249.05C403.659 250.262 404.331 251.53 405.336 252.244C406.342 252.96 407.619 253.198 408.851 253.191C410.827 253.181 414.123 251.94 413.482 249.313C412.94 247.097 410.538 246.16 408.523 246.213L408.526 246.212Z" fill="#F49819"/>
<path d="M407.966 259.543C407.459 260.188 406.702 260.599 405.916 260.843C404.047 261.426 401.83 261.115 400.244 259.944C398.739 258.835 398.203 256.39 399.993 255.219C402.304 253.711 410.891 255.838 407.966 259.543Z" fill="#F49819"/>
<path d="M349.035 285.483C350.741 285.507 352.364 286.186 354.035 286.541C356.127 286.984 358.329 286.921 360.346 287.628C362.363 288.335 364.249 290.183 363.99 292.306C363.901 293.034 363.57 293.706 363.246 294.365C362.045 296.793 360.847 299.22 359.646 301.648C358.345 304.276 355.855 306.757 352.701 305.184C350.358 304.015 350.295 300.698 350.312 298.457C350.322 297.037 350.026 295.4 348.796 294.69C348.336 294.425 347.802 294.328 347.306 294.14C342.833 292.442 344.209 285.42 349.037 285.489L349.035 285.483Z" fill="#F49819"/>
<path d="M354.586 280.693C354.157 281.72 353.962 283.025 354.707 283.853C355.147 284.343 355.822 284.551 356.473 284.656C359.802 285.201 366.46 282.727 363.685 278.323C361.425 274.736 355.821 277.755 354.59 280.694L354.586 280.693Z" fill="#F49819"/>
<path d="M368.241 281.309C366.969 282.314 366.243 284.099 366.79 285.624C366.89 285.9 367.032 286.172 367.249 286.373C367.584 286.686 368.054 286.805 368.508 286.876C370.255 287.154 372.084 286.898 373.692 286.153C374.678 285.695 375.607 285.026 376.116 284.067C376.625 283.108 376.619 281.827 375.893 281.019C373.914 278.816 370.295 279.685 368.244 281.308L368.241 281.309Z" fill="#F49819"/>
<path d="M373.232 288.415C371.781 288.466 370.276 288.845 369.216 289.832C368.156 290.822 367.682 292.531 368.417 293.78C369.055 294.866 370.364 295.34 371.588 295.634C373.163 296.013 374.865 296.217 376.366 295.609C377.868 295.001 379.048 293.35 378.631 291.787C377.881 288.973 375.941 288.318 373.232 288.415Z" fill="#F49819"/>
<path d="M364.989 298.938C364.011 299.372 363.141 300.182 362.908 301.227C362.025 305.216 368.361 305.438 370.698 304.351C373.488 303.051 373.293 299.865 370.573 298.605C368.928 297.841 366.593 298.226 364.987 298.941L364.989 298.938Z" fill="#F49819"/>
<path d="M307.045 251.415C306.841 248.787 309.779 246.447 312.294 247.233C312.857 247.407 313.372 247.705 313.883 247.998C315.751 249.068 317.62 250.141 319.488 251.211C321.024 252.092 322.571 252.979 323.903 254.143C325.1 255.186 326.162 256.582 326.158 258.171C326.152 260.267 324.357 261.863 322.714 263.167C321.127 264.424 319.54 265.682 317.955 266.938C316.529 268.07 315.011 269.241 313.211 269.515C311.411 269.788 309.28 268.786 308.985 266.991C308.712 265.325 310.022 263.866 310.635 262.296C312.474 257.576 307.369 255.542 307.046 251.421L307.045 251.415Z" fill="#F49819"/>
<path d="M319.679 247.946C319.749 248.394 319.922 248.836 320.236 249.163C320.577 249.52 321.056 249.71 321.533 249.832C323.042 250.218 324.701 249.981 326.045 249.187C326.411 248.971 326.75 248.72 327.081 248.456C327.343 248.248 327.601 248.033 327.813 247.776C329.533 245.683 327.303 242.673 324.885 242.785C322.381 242.899 319.244 245.199 319.676 247.947L319.679 247.946Z" fill="#F49819"/>
<path d="M329.204 252.554C328.491 253.314 327.972 254.483 328.506 255.377C328.668 255.644 328.91 255.855 329.155 256.053C330.272 256.938 331.605 257.601 333.026 257.697C334.446 257.794 335.949 257.26 336.815 256.13C338.168 254.357 337.268 251.794 335.328 250.858C333.406 249.928 330.547 251.129 329.205 252.557L329.204 252.554Z" fill="#F49819"/>
<path d="M333.282 260.04C332.344 259.753 331.351 259.581 330.384 259.737C329.416 259.894 328.475 260.423 327.993 261.275C327.386 262.351 327.624 263.763 328.351 264.761C329.078 265.757 330.216 266.387 331.39 266.77C333.268 267.383 336.787 267.243 337.005 264.547C337.19 262.274 335.205 260.629 333.279 260.04L333.282 260.04Z" fill="#F49819"/>
<path d="M328.551 272.516C327.865 272.969 327.018 273.12 326.195 273.105C324.238 273.071 322.233 272.073 321.096 270.464C320.017 268.937 320.281 266.446 322.347 265.901C325.016 265.197 332.495 269.921 328.551 272.516Z" fill="#F49819"/>
<path d="M264.447 278.572C266.06 279.132 267.384 280.288 268.857 281.151C270.702 282.232 272.812 282.862 274.504 284.171C276.195 285.477 277.403 287.826 276.488 289.758C276.175 290.422 275.648 290.957 275.131 291.478C273.227 293.403 271.325 295.328 269.42 297.254C267.357 299.34 264.214 300.911 261.715 298.421C259.862 296.573 260.846 293.404 261.566 291.284C262.025 289.939 262.258 288.294 261.314 287.231C260.962 286.834 260.487 286.574 260.075 286.238C256.367 283.217 259.884 276.988 264.441 278.571L264.447 278.572Z" fill="#F49819"/>
<path d="M271.227 275.775C270.495 276.615 269.898 277.789 270.344 278.811C270.608 279.415 271.184 279.823 271.768 280.13C274.757 281.693 281.854 281.446 280.608 276.392C279.592 272.275 273.324 273.376 271.23 275.776L271.227 275.775Z" fill="#F49819"/>
<path d="M283.992 280.663C282.468 281.215 281.214 282.68 281.255 284.298C281.263 284.594 281.313 284.893 281.454 285.153C281.674 285.556 282.082 285.818 282.489 286.027C284.062 286.841 285.876 287.175 287.637 286.975C288.715 286.853 289.81 286.507 290.596 285.758C291.382 285.01 291.779 283.79 291.345 282.794C290.161 280.082 286.453 279.767 283.994 280.659L283.992 280.663Z" fill="#F49819"/>
<path d="M286.487 288.977C285.093 288.57 283.547 288.453 282.229 289.059C280.912 289.665 279.924 291.134 280.227 292.554C280.491 293.786 281.584 294.647 282.653 295.312C284.028 296.167 285.578 296.897 287.194 296.796C288.81 296.693 290.451 295.498 290.547 293.881C290.721 290.976 289.09 289.74 286.487 288.977Z" fill="#F49819"/>
<path d="M275.348 296.366C274.286 296.471 273.202 296.965 272.654 297.881C270.56 301.386 276.502 303.596 279.063 303.299C282.122 302.944 282.94 299.861 280.758 297.805C279.437 296.562 277.101 296.192 275.351 296.365L275.348 296.366Z" fill="#F49819"/>
<path d="M215.741 257.138C214.395 254.871 215.994 251.473 218.598 251.063C219.178 250.972 219.772 251.007 220.361 251.044C222.51 251.178 224.662 251.311 226.811 251.445C228.579 251.556 230.357 251.669 232.07 252.12C233.604 252.528 235.174 253.308 235.873 254.734C236.794 256.615 235.892 258.841 234.998 260.736C234.132 262.565 233.265 264.394 232.399 266.222C231.62 267.867 230.778 269.589 229.285 270.63C227.792 271.67 225.438 271.716 224.377 270.236C223.395 268.864 223.925 266.975 223.778 265.294C223.338 260.249 217.861 260.686 215.745 257.13L215.741 257.138Z" fill="#F49819"/>
<path d="M225.533 248.437C225.795 248.808 226.145 249.128 226.572 249.279C227.038 249.448 227.549 249.406 228.034 249.305C229.558 248.982 230.942 248.035 231.795 246.733C232.027 246.377 232.219 246.002 232.4 245.618C232.543 245.317 232.678 245.008 232.756 244.684C233.371 242.048 230.039 240.335 227.92 241.503C225.726 242.712 223.93 246.164 225.536 248.436L225.533 248.437Z" fill="#F49819"/>
<path d="M236.115 248.351C235.811 249.349 235.863 250.626 236.739 251.189C237.003 251.36 237.313 251.44 237.619 251.507C239.012 251.807 240.503 251.811 241.818 251.269C243.133 250.726 244.248 249.583 244.52 248.185C244.948 245.997 243.006 244.098 240.852 244.115C238.718 244.134 236.685 246.473 236.112 248.349L236.115 248.351Z" fill="#F49819"/>
<path d="M243.087 253.26C242.12 253.419 241.153 253.704 240.354 254.272C239.555 254.84 238.946 255.731 238.893 256.707C238.825 257.938 239.665 259.102 240.759 259.672C241.853 260.243 243.151 260.303 244.374 260.126C246.329 259.845 249.426 258.162 248.425 255.648C247.584 253.527 245.076 252.929 243.089 253.257L243.087 253.26Z" fill="#F49819"/>
<path d="M244.368 266.54C243.953 267.246 243.261 267.76 242.517 268.11C240.748 268.943 238.506 268.941 236.774 267.998C235.13 267.106 234.263 264.758 235.875 263.355C237.956 261.543 246.755 262.468 244.366 266.54L244.368 266.54Z" fill="#F49819"/>
<path d="M189.563 300.34C191.259 300.129 192.957 300.579 194.66 300.7C196.793 300.851 198.965 300.485 201.06 300.909C203.157 301.332 205.277 302.902 205.313 305.041C205.324 305.774 205.091 306.488 204.86 307.184C204.004 309.752 203.15 312.322 202.295 314.89C201.368 317.673 199.245 320.472 195.902 319.347C193.421 318.511 192.9 315.235 192.611 313.014C192.425 311.606 191.907 310.027 190.59 309.493C190.099 309.294 189.556 309.269 189.039 309.151C184.376 308.084 184.77 300.94 189.562 300.343L189.563 300.34Z" fill="#F49819"/>
<path d="M194.404 294.831C194.12 295.908 194.105 297.226 194.956 297.944C195.461 298.371 196.158 298.481 196.816 298.495C200.188 298.575 206.442 295.211 203.088 291.23C200.355 287.987 195.22 291.748 194.403 294.828L194.404 294.831Z" fill="#F49819"/>
<path d="M208.014 293.562C206.892 294.731 206.415 296.599 207.17 298.033C207.306 298.294 207.485 298.541 207.727 298.71C208.103 298.974 208.583 299.027 209.043 299.036C210.812 299.071 212.591 298.567 214.079 297.608C214.99 297.02 215.821 296.227 216.194 295.209C216.566 294.188 216.382 292.92 215.553 292.221C213.291 290.311 209.825 291.671 208.016 293.561L208.014 293.562Z" fill="#F49819"/>
<path d="M213.934 299.912C212.505 300.162 211.067 300.745 210.151 301.869C209.236 302.995 209.004 304.75 209.904 305.887C210.685 306.874 212.048 307.163 213.301 307.286C214.912 307.444 216.627 307.414 218.031 306.606C219.435 305.798 220.375 304.001 219.749 302.509C218.62 299.826 216.608 299.443 213.937 299.911L213.934 299.912Z" fill="#F49819"/>
<path d="M207.216 311.47C206.309 312.035 205.557 312.954 205.472 314.021C205.145 318.093 211.452 317.442 213.618 316.043C216.202 314.372 215.573 311.243 212.706 310.369C210.972 309.838 208.711 310.541 207.22 311.471L207.216 311.47Z" fill="#F49819"/>
<path d="M142.053 310.645C139.836 309.221 139.745 305.466 141.893 303.936C142.372 303.595 142.92 303.362 143.463 303.131C145.447 302.289 147.429 301.45 149.413 300.608C151.042 299.918 152.684 299.221 154.419 298.862C155.973 298.541 157.729 298.536 158.991 299.5C160.659 300.772 160.845 303.165 160.89 305.262C160.934 307.285 160.975 309.308 161.019 311.331C161.058 313.153 161.074 315.066 160.205 316.666C159.334 318.267 157.249 319.358 155.64 318.508C154.148 317.719 153.779 315.794 152.894 314.356C150.243 310.039 145.538 312.879 142.059 310.643L142.053 310.645Z" fill="#F49819"/>
<path d="M146.924 298.485C147.324 298.699 147.78 298.829 148.23 298.775C148.721 298.717 149.162 298.452 149.549 298.145C150.767 297.176 151.583 295.711 151.762 294.162C151.811 293.742 151.814 293.318 151.805 292.894C151.797 292.56 151.782 292.224 151.705 291.898C151.076 289.264 147.329 289.225 145.957 291.215C144.535 293.28 144.471 297.168 146.923 298.482L146.924 298.485Z" fill="#F49819"/>
<path d="M156.353 293.681C156.527 294.708 157.143 295.828 158.181 295.94C158.494 295.974 158.806 295.908 159.111 295.832C160.489 295.477 161.826 294.814 162.762 293.741C163.698 292.667 164.182 291.146 163.802 289.774C163.205 287.624 160.619 286.796 158.702 287.774C156.8 288.744 156.029 291.746 156.356 293.68L156.353 293.681Z" fill="#F49819"/>
<path d="M164.784 294.956C163.99 295.531 163.251 296.216 162.791 297.081C162.331 297.946 162.184 299.014 162.572 299.915C163.061 301.048 164.332 301.711 165.566 301.733C166.8 301.755 167.99 301.228 169.003 300.526C170.625 299.399 172.644 296.511 170.627 294.709C168.926 293.188 166.415 293.776 164.784 294.956Z" fill="#F49819"/>
<path d="M171.867 306.263C171.812 307.081 171.42 307.849 170.913 308.494C169.703 310.03 167.698 311.029 165.726 310.961C163.857 310.896 162.032 309.185 162.845 307.207C163.897 304.656 172.181 301.551 171.866 306.26L171.867 306.263Z" fill="#F49819"/>
<path d="M137.951 360.988C139.372 360.043 141.092 359.686 142.671 359.031C144.647 358.212 146.427 356.916 148.489 356.358C150.553 355.798 153.152 356.255 154.141 358.153C154.48 358.803 154.59 359.544 154.692 360.273C155.078 362.954 155.459 365.632 155.844 368.313C156.26 371.216 155.611 374.669 152.119 375.155C149.525 375.514 147.594 372.818 146.341 370.961C145.547 369.783 144.375 368.603 142.96 368.713C142.43 368.755 141.935 368.976 141.419 369.102C136.77 370.232 133.93 363.666 137.949 360.991L137.951 360.988Z" fill="#F49819"/>
<path d="M139.816 353.896C140.041 354.987 140.62 356.173 141.702 356.434C142.343 356.591 143.017 356.378 143.612 356.097C146.663 354.662 150.756 348.856 145.974 346.797C142.08 345.119 139.167 350.779 139.813 353.897L139.816 353.896Z" fill="#F49819"/>
<path d="M151.427 346.679C150.947 348.228 151.356 350.11 152.672 351.056C152.912 351.229 153.181 351.371 153.473 351.415C153.927 351.486 154.383 351.317 154.796 351.118C156.396 350.357 157.76 349.112 158.661 347.591C159.215 346.658 159.603 345.579 159.48 344.498C159.358 343.421 158.627 342.367 157.571 342.112C154.694 341.414 152.202 344.18 151.427 346.679Z" fill="#F49819"/>
<path d="M159.561 349.716C158.395 350.578 157.367 351.742 157.051 353.158C156.736 354.575 157.312 356.248 158.627 356.863C159.768 357.397 161.115 357.047 162.291 356.597C163.803 356.018 165.322 355.225 166.219 353.875C167.113 352.526 167.153 350.496 165.923 349.443C163.714 347.548 161.741 348.103 159.561 349.716Z" fill="#F49819"/>
<path d="M158.719 363.053C158.158 363.964 157.898 365.123 158.299 366.115C159.827 369.902 165.18 366.503 166.49 364.282C168.055 361.633 166.092 359.115 163.136 359.614C161.349 359.916 159.64 361.555 158.719 363.053Z" fill="#F49819"/>
<path d="M91.7664 372.561C89.6826 370.949 89.9186 367.2 92.1893 365.864C92.697 365.564 93.2614 365.38 93.8214 365.2C95.8711 364.535 97.9198 363.868 99.9668 363.204C101.65 362.657 103.348 362.108 105.104 361.9C106.68 361.714 108.428 361.864 109.604 362.933C111.154 364.343 111.132 366.746 110.993 368.836C110.86 370.856 110.727 372.876 110.593 374.894C110.471 376.71 110.323 378.622 109.315 380.137C108.308 381.655 106.134 382.562 104.605 381.574C103.186 380.66 102.985 378.711 102.23 377.199C99.9668 372.667 95.0301 375.088 91.7592 372.558L91.7664 372.561Z" fill="#F49819"/>
<path d="M97.6757 360.871C98.0548 361.119 98.4998 361.288 98.9513 361.273C99.4448 361.259 99.9089 361.033 100.318 360.761C101.619 359.902 102.555 358.512 102.87 356.985C102.954 356.572 102.997 356.149 103.024 355.725C103.046 355.392 103.061 355.056 103.012 354.727C102.615 352.047 98.8864 351.679 97.3435 353.545C95.7482 355.477 95.3437 359.346 97.6721 360.869L97.6757 360.871Z" fill="#F49819"/>
<path d="M107.487 356.907C107.571 357.944 108.089 359.115 109.111 359.316C109.418 359.376 109.737 359.34 110.048 359.289C111.453 359.057 112.841 358.511 113.867 357.526C114.892 356.539 115.508 355.066 115.247 353.665C114.841 351.472 112.338 350.419 110.339 351.228C108.36 352.03 107.329 354.953 107.487 356.907Z" fill="#F49819"/>
<path d="M115.775 358.908C114.933 359.41 114.139 360.03 113.605 360.852C113.073 361.673 112.831 362.724 113.139 363.655C113.529 364.827 114.735 365.599 115.963 365.727C117.191 365.856 118.419 365.436 119.492 364.823C121.208 363.841 123.469 361.139 121.616 359.169C120.055 357.506 117.502 357.872 115.774 358.905L115.775 358.908Z" fill="#F49819"/>
<path d="M121.846 370.789C121.72 371.602 121.265 372.331 120.703 372.929C119.363 374.354 117.276 375.174 115.322 374.936C113.467 374.709 111.796 372.844 112.779 370.946C114.048 368.498 122.573 366.126 121.846 370.789Z" fill="#F49819"/>
<path d="M83.2947 422.355C84.7939 421.536 86.5394 421.332 88.1685 420.818C90.2074 420.175 92.0944 419.037 94.1997 418.661C96.3049 418.285 98.8538 418.967 99.6719 420.94C99.9515 421.619 99.998 422.367 100.036 423.1C100.185 425.803 100.336 428.506 100.484 431.21C100.646 434.139 99.6984 437.522 96.178 437.702C93.5614 437.836 91.8755 434.98 90.7883 433.022C90.0981 431.782 89.0366 430.502 87.6149 430.489C87.0847 430.483 86.5721 430.662 86.0466 430.741C81.3148 431.46 79.0604 424.673 83.2956 422.358L83.2947 422.355Z" fill="#F49819"/>
<path d="M85.7708 415.454C85.9026 416.561 86.3738 417.79 87.4283 418.147C88.0541 418.357 88.7429 418.205 89.3618 417.978C92.5291 416.814 97.1081 411.387 92.5266 408.917C88.7926 406.907 85.3991 412.292 85.7735 415.453L85.7708 415.454Z" fill="#F49819"/>
<path d="M97.9651 409.275C97.3527 410.777 97.5974 412.687 98.8226 413.745C99.0459 413.938 99.3013 414.102 99.5904 414.172C100.036 414.281 100.503 414.153 100.935 413.992C102.595 413.376 104.061 412.254 105.094 410.814C105.728 409.932 106.209 408.89 106.18 407.804C106.151 406.719 105.513 405.607 104.486 405.261C101.681 404.316 98.9561 406.852 97.9678 409.274L97.9651 409.275Z" fill="#F49819"/>
<path d="M105.804 413.006C104.567 413.763 103.442 414.832 103.005 416.218C102.569 417.603 102.999 419.32 104.253 420.048C105.343 420.68 106.716 420.449 107.927 420.103C109.484 419.658 111.067 418.999 112.075 417.734C113.084 416.469 113.298 414.448 112.168 413.293C110.131 411.212 108.121 411.595 105.806 413.011L105.804 413.006Z" fill="#F49819"/>
<path d="M103.802 426.221C103.164 427.08 102.803 428.214 103.116 429.236C104.308 433.142 109.935 430.22 111.436 428.123C113.226 425.619 111.49 422.941 108.5 423.18C106.692 423.324 104.848 424.809 103.802 426.221Z" fill="#F49819"/>
<path d="M32.199 422.211C30.4324 420.256 31.3268 416.61 33.7984 415.693C34.3503 415.488 34.9401 415.406 35.5219 415.326C37.6551 415.033 39.7911 414.739 41.9243 414.445C43.6777 414.203 45.4437 413.962 47.2135 414.069C48.7974 414.164 50.4934 414.618 51.4591 415.879C52.7366 417.543 52.2908 419.901 51.7867 421.936C51.3002 423.899 50.8119 425.866 50.3254 427.829C49.8865 429.597 49.4014 431.449 48.1445 432.765C46.8876 434.082 44.5862 434.593 43.2566 433.35C42.0239 432.199 42.1671 430.244 41.6928 428.626C40.2617 423.766 34.9792 425.277 32.2053 422.212L32.199 422.211Z" fill="#F49819"/>
<path d="M40.0772 411.748C40.4064 412.061 40.8133 412.302 41.2623 412.369C41.7499 412.443 42.2457 412.302 42.6983 412.105C44.1285 411.488 45.2981 410.285 45.8759 408.84C46.0327 408.447 46.1484 408.038 46.2489 407.628C46.3309 407.305 46.4021 406.977 46.4116 406.642C46.4922 403.936 42.8897 402.917 41.0417 404.48C39.1297 406.101 38.0505 409.836 40.0745 411.749L40.0772 411.748Z" fill="#F49819"/>
<path d="M50.435 409.572C50.3341 410.608 50.6372 411.852 51.607 412.232C51.8989 412.345 52.219 412.365 52.5338 412.369C53.9573 412.387 55.4199 412.097 56.6036 411.306C57.7873 410.516 58.6507 409.175 58.6447 407.751C58.6322 405.52 56.3522 404.043 54.2427 404.486C52.1529 404.926 50.6247 407.622 50.4323 409.573L50.435 409.572Z" fill="#F49819"/>
<path d="M58.2388 413.004C57.3236 413.352 56.4311 413.82 55.7595 414.536C55.0906 415.251 54.6677 416.244 54.8071 417.214C54.9832 418.435 56.0373 419.41 57.2214 419.753C58.4056 420.096 59.6907 419.898 60.8551 419.485C62.717 418.82 65.419 416.56 63.9436 414.292C62.6992 412.382 60.1229 412.291 58.2388 413.004Z" fill="#F49819"/>
<path d="M62.1196 425.771C61.8533 426.547 61.2753 427.186 60.6163 427.674C59.0468 428.842 56.8488 429.279 54.9646 428.701C53.1761 428.15 51.8639 426.021 53.166 424.325C54.848 422.138 63.654 421.306 62.1196 425.771Z" fill="#F49819"/>
<path d="M15.0793 469.732C16.6993 469.191 18.453 469.295 20.1466 469.078C22.2683 468.804 24.3247 468.018 26.4617 468.018C28.6013 468.018 30.9909 469.14 31.4472 471.226C31.6054 471.942 31.5169 472.688 31.4247 473.415C31.0955 476.1 30.7645 478.79 30.4353 481.476C30.0774 484.386 28.5491 487.551 25.0514 487.108C22.4546 486.779 21.2953 483.67 20.5715 481.552C20.1115 480.206 19.29 478.762 17.8942 478.499C17.3744 478.4 16.8364 478.486 16.3061 478.471C11.5221 478.346 10.4997 471.265 15.0775 469.735L15.0793 469.732Z" fill="#F49819"/>
<path d="M18.733 463.376C18.6664 464.488 18.9151 465.782 19.8899 466.319C20.4686 466.636 21.1722 466.608 21.8227 466.493C25.1459 465.906 30.6106 461.371 26.5342 458.134C23.2147 455.495 18.9228 460.198 18.733 463.376Z" fill="#F49819"/>
<path d="M31.826 459.445C30.96 460.814 30.8605 462.739 31.8844 463.996C32.0694 464.226 32.2937 464.431 32.5641 464.551C32.985 464.737 33.4659 464.694 33.918 464.61C35.6587 464.295 37.3017 463.451 38.5714 462.217C39.3484 461.46 40.0067 460.518 40.17 459.446C40.3334 458.373 39.9016 457.165 38.9502 456.644C36.3539 455.22 33.2263 457.236 31.8269 459.448L31.826 459.445Z" fill="#F49819"/>
<path d="M38.8846 464.498C37.5319 465.026 36.2385 465.88 35.5644 467.164C34.8904 468.447 35.0094 470.215 36.117 471.154C37.0785 471.969 38.4707 471.983 39.7229 471.856C41.3327 471.692 43.0078 471.323 44.2254 470.253C45.4402 469.184 46.009 467.235 45.0985 465.898C43.4598 463.491 41.4132 463.511 38.8882 464.5L38.8846 464.498Z" fill="#F49819"/>
<path d="M34.5846 477.155C33.8058 477.889 33.2498 478.939 33.3788 480.002C33.8637 484.057 39.9183 482.172 41.7645 480.374C43.967 478.225 42.7324 475.283 39.7485 474.992C37.9435 474.816 35.8669 475.949 34.5882 477.157L34.5846 477.155Z" fill="#F49819"/>
</g>
<defs>
<clipPath id="clip0_7_633">
<rect width="823.194" height="260.705" fill="white" transform="translate(-66 243.18) rotate(-18.6452)"/>
</clipPath>
</defs>
</svg>
