<svg width="105" height="52" viewBox="0 0 105 52" fill="none" xmlns="http://www.w3.org/2000/svg">
<g clip-path="url(#clip0_4_21)">
<path d="M6.05517 25.688C7.39599 25.1872 8.44517 23.8945 7.82506 22.1503C5.97833 16.9644 6.15003 13.813 5.91691 11.0098C10.3521 11.4069 16.7018 13.2136 17.7938 13.6063C19.1282 14.1815 20.5855 13.7212 21.1308 12.509C21.7074 11.2282 21.0448 9.59244 19.6523 8.85759C18.748 8.38081 8.08667 5.19241 2.46978 5.62502C1.16957 5.72554 0.255228 6.74473 0.301414 8.03971C0.313879 8.3835 -0.0894069 16.096 2.2009 22.9964C2.82582 24.8815 4.87215 26.1308 6.05837 25.6863L6.05517 25.688ZM17.7638 13.5946C17.6686 13.5547 17.6031 13.5183 17.5645 13.4971C17.6299 13.5318 17.6969 13.5648 17.7638 13.5946Z" fill="#00A453"/>
<path d="M4.4518 12.2986C4.40919 12.9056 4.55728 13.8516 4.95604 14.3728C13.0307 24.9276 24.1504 30.868 37.9616 32.661C39.0223 32.7994 40.3771 32.9275 41.3793 33.0047C42.637 35.802 44.5241 38.4016 46.998 40.6923C51.7184 45.0661 57.9547 47.401 64.5935 48.263C77.3968 49.9251 91.3554 44.9946 102.105 34.9457C103.147 33.9698 104.121 32.7199 103.326 31.7659C102.654 30.9587 101.405 31.275 100.362 32.2509C90.6946 41.2894 76.5509 45.251 65.2133 43.7776C59.6961 43.0611 54.0771 40.4798 50.1841 36.8717C49.0985 35.8653 47.9621 34.6088 46.9845 33.1022C64.1376 32.4039 71.5651 22.3496 72.2958 16.7096C73.1857 9.64878 67.4116 3.18002 59.2115 2.11403C53.6514 1.39287 41.7982 5.46277 39.7138 21.5858C39.448 23.6461 39.4755 25.6782 39.7853 27.6531C39.5088 27.6215 38.9071 27.5654 38.6271 27.529C26.2306 25.9189 16.3104 20.0023 9.10286 10.5803C8.23563 9.44588 6.59196 9.55392 5.45952 10.4224C4.84742 10.8915 4.50254 11.5829 4.45344 12.2985L4.4518 12.2986ZM44.7731 27.9626C44.3735 26.2411 44.2386 24.3319 44.5141 22.2318C46.2538 8.77456 56.0083 7.24408 58.5249 7.57162C63.1281 8.16931 67.4792 11.2711 66.8487 16.0243C66.312 20.1779 59.9799 28.0536 44.7732 27.9643L44.7731 27.9626Z" fill="#00A453"/>
</g>
<defs>
<clipPath id="clip0_4_21">
<rect width="47.0823" height="102.236" fill="white" transform="translate(102.129) rotate(87.3788)"/>
</clipPath>
</defs>
</svg>
